<svg width="187" height="748" viewBox="0 0 187 748" fill="none" xmlns="http://www.w3.org/2000/svg">
<g filter="url(#filter0_d_1_55)">
<g clip-path="url(#clip0_1_55)">
<path d="M18.5 81.3708V649.774C18.5 676.067 49.34 697.5 93.5 697.5C137.66 697.5 168.5 676.067 168.5 649.774V81.3708" fill="url(#paint0_linear_1_55)"/>
<path d="M18.5 81.3708V649.774C18.5 676.067 49.34 697.5 93.5 697.5C137.66 697.5 168.5 676.067 168.5 649.774V81.3708" stroke="#002E31" stroke-width="4" stroke-linecap="round" stroke-linejoin="round"/>
<path d="M178.5 68.3547V129.096C178.5 138.676 140.42 146.451 93.5 146.451C46.58 146.451 8.5 138.676 8.5 129.096V68.3547C8.5 77.9346 46.58 85.7095 93.5 85.7095C140.42 85.7095 178.5 77.9346 178.5 68.3547Z" fill="#13A6AE" stroke="black" stroke-linecap="round" stroke-linejoin="round"/>
<path d="M141.01 143.484V82.7419M153.6 80.6246V141.366M126.58 145.089V84.3472M163.98 78.0561V138.798M110.62 146.104V85.3624M171.82 75.1058V135.847M93.5 146.451V85.7095M176.77 71.8517V132.593M76.38 146.104V85.3624M178.5 68.3547V129.096M60.42 145.089V84.3472M45.99 143.484V82.7419M33.4 141.366V80.6246M23.02 138.798V78.0561M15.18 135.847V75.1058M10.23 132.593V71.8517M8.5 68.3547V129.096" stroke="#002E31" stroke-linecap="round" stroke-linejoin="round"/>
<path d="M178.5 68.3548C178.5 72.9575 169.545 77.3718 153.604 80.6265C137.663 83.8811 116.043 85.7095 93.5 85.7095C70.9566 85.7095 49.3365 83.8811 33.3959 80.6265C17.4553 77.3718 8.5 72.9575 8.5 68.3548C8.5 63.752 17.4553 59.3378 33.3959 56.0831C49.3365 52.8285 70.9566 51 93.5 51C116.043 51 137.663 52.8285 153.604 56.0831C169.545 59.3378 178.5 63.752 178.5 68.3548Z" fill="#13A6AE" stroke="black" stroke-linecap="round" stroke-linejoin="round"/>
<path d="M138.06 69.2398C137.91 68.9361 137.9 68.6324 137.59 68.3374C136.99 67.7733 136.11 67.2353 134.97 66.7147C133.83 66.1941 132.43 65.7081 130.81 65.2482C129.19 64.7883 127.35 64.3371 125.31 63.9466C121.24 63.1656 116.38 62.5409 111 62.107C105.62 61.6645 99.7099 61.4302 93.4999 61.4302C87.2899 61.4302 81.3799 61.6645 75.9999 62.107C70.6199 62.5409 65.7599 63.1656 61.6899 63.9466C59.6499 64.3371 57.8099 64.7883 56.1899 65.2482C54.5699 65.7081 53.1699 66.1941 52.0299 66.7147C50.8899 67.2353 50.0099 67.7733 49.4099 68.3374C49.0999 68.6324 49.0899 68.9361 48.9399 69.2398C51.2299 73.6132 70.1999 77.0495 93.4999 77.0495C116.8 77.0495 135.77 73.6132 138.06 69.2398Z" fill="#002E31" stroke="black" stroke-linecap="round" stroke-linejoin="round"/>
<path d="M93.5 59.6947C68.66 59.6947 48.5 63.5822 48.5 68.3721C48.5 68.6671 48.79 68.9448 48.94 69.2398C49.09 68.9361 49.1 68.6324 49.41 68.3374C50.01 67.7733 50.89 67.2353 52.03 66.7147C53.17 66.1941 54.57 65.7081 56.19 65.2482C57.81 64.7883 59.65 64.3371 61.69 63.9466C65.76 63.1657 70.62 62.5409 76 62.107C81.38 61.6645 87.29 61.4302 93.5 61.4302C99.71 61.4302 105.62 61.6645 111 62.107C116.38 62.5409 121.24 63.1657 125.31 63.9466C127.35 64.3371 129.19 64.7883 130.81 65.2482C132.43 65.7081 133.83 66.1941 134.97 66.7147C136.11 67.2353 136.99 67.7733 137.59 68.3374C137.9 68.6324 137.91 68.9361 138.06 69.2398C138.21 68.9448 138.5 68.6671 138.5 68.3721C138.5 63.5822 118.34 59.6947 93.5 59.6947Z" stroke="black" stroke-linecap="round" stroke-linejoin="round"/>
</g>
</g>
<defs>
<filter id="filter0_d_1_55" x="-0.5" y="-8" width="187" height="763.5" filterUnits="userSpaceOnUse" color-interpolation-filters="sRGB">
<feFlood flood-opacity="0" result="BackgroundImageFix"/>
<feColorMatrix in="SourceAlpha" type="matrix" values="0 0 0 0 0 0 0 0 0 0 0 0 0 0 0 0 0 0 127 0" result="hardAlpha"/>
<feOffset/>
<feGaussianBlur stdDeviation="4"/>
<feComposite in2="hardAlpha" operator="out"/>
<feColorMatrix type="matrix" values="0 0 0 0 0.913368 0 0 0 0 0.913368 0 0 0 0 0.913368 0 0 0 1 0"/>
<feBlend mode="normal" in2="BackgroundImageFix" result="effect1_dropShadow_1_55"/>
<feBlend mode="normal" in="SourceGraphic" in2="effect1_dropShadow_1_55" result="shape"/>
</filter>
<linearGradient id="paint0_linear_1_55" x1="93" y1="211.5" x2="91.322" y2="600.248" gradientUnits="userSpaceOnUse">
<stop offset="0.0480769" stop-color="#E6E9ED"/>
<stop offset="0.0481769" stop-color="#880808"/>
</linearGradient>
<clipPath id="clip0_1_55">
<rect width="171" height="747.5" fill="white" transform="translate(7.5)"/>
</clipPath>
</defs>
</svg>
