<svg width="350" height="350" viewBox="0 0 350 350" fill="none" xmlns="http://www.w3.org/2000/svg">
<g clip-path="url(#clip0_2_13)">
<path d="M292.109 1.74902H57.8925C26.7742 1.74902 1.5479 26.9459 1.5479 58.0277V291.97C1.5479 323.052 26.7742 348.249 57.8925 348.249H292.109C323.227 348.249 348.453 323.052 348.453 291.97V58.0277C348.453 26.9459 323.227 1.74902 292.109 1.74902Z" fill="#C8ECED" stroke="#002E31" stroke-width="4.3788"/>
<path d="M56.4389 1.75676C46.7816 2.00373 37.746 4.67102 29.9043 9.14472C32.1367 15.566 35.8315 21.5991 40.9816 26.7432L106.378 92.0563V348.243H243.629V92.0563L309.018 26.7432C314.168 21.5991 317.87 15.566 320.103 9.14472C311.865 4.44522 302.314 1.75676 292.106 1.75676H57.8942C57.4067 1.75676 56.9192 1.74265 56.4389 1.75676Z" fill="#13A6AE" stroke="#002E31" stroke-width="4.9744"/>
<path d="M56.9899 1.75704C58.3745 8.77101 61.7726 15.4675 67.2335 20.922L148.589 102.197C163.213 116.81 186.787 116.81 201.418 102.197L282.767 20.922C288.234 15.4675 291.633 8.77101 293.01 1.75704C292.713 1.74999 292.41 1.75704 292.106 1.75704H57.8942C57.5904 1.75704 57.2937 1.74999 56.9899 1.75704Z" fill="#E6E9ED" stroke="#002E31" stroke-width="4"/>
<path d="M175.01 9.31152C145.086 9.31152 118.129 22.1321 99.3653 42.5735L140.68 83.8395C148.802 73.8743 161.177 67.5503 175.01 67.5503C188.85 67.5503 201.199 73.8743 209.328 83.8395L250.636 42.5735C231.878 22.1321 204.934 9.31152 175.01 9.31152Z" fill="white" stroke="black" stroke-width="3.62112"/>
<path d="M174.996 45.2148V61.2087" stroke="black" stroke-width="4.00003"/>
<path d="M187.236 46.2812L184.456 62.032" stroke="black" stroke-width="4.00002"/>
<path d="M199.097 49.4624L193.621 64.4917" stroke="black" stroke-width="4.00002"/>
<path d="M210.229 54.6426L202.223 68.4935" stroke="black" stroke-width="4.00001"/>
<path d="M220.291 61.6763L209.999 73.928" stroke="black" stroke-width="4.00001"/>
<path d="M129.714 61.6831L140.006 73.9349" stroke="black" stroke-width="4.00001"/>
<path d="M139.77 54.6465L147.776 68.4975" stroke="black" stroke-width="4.00001"/>
<path d="M150.903 49.4619L156.38 64.4912" stroke="black" stroke-width="4.00002"/>
<path d="M175.005 33.0496V11.4248" stroke="black" stroke-width="4.00004"/>
<path d="M194.653 35.5409L200.256 14.6528" stroke="black" stroke-width="4.00002"/>
<path d="M212.993 43.0294L223.819 24.3018" stroke="black" stroke-width="4.00004"/>
<path d="M228.76 55.0017L244.069 39.7104" stroke="black" stroke-width="4.00005"/>
<path d="M121.452 55.4958L106.143 40.2046" stroke="black" stroke-width="4.00005"/>
<path d="M137.113 43.3819L126.287 24.6543" stroke="black" stroke-width="4.00004"/>
<path d="M155.376 35.722L149.772 14.834" stroke="black" stroke-width="4.00002"/>
<path d="M162.825 46.272L165.592 62.0251" stroke="black" stroke-width="4"/>
<path d="M175.004 11.6948V65.3897" stroke="#D40000" stroke-width="5.99997"/>
</g>
<defs>
<clipPath id="clip0_2_13">
<rect width="350" height="350" fill="white"/>
</clipPath>
</defs>
</svg>
