<svg width="171" height="748" viewBox="0 0 171 748" fill="none" xmlns="http://www.w3.org/2000/svg">
<g clip-path="url(#clip0_4_288)">
<path d="M11 32.3708V600.774C11 627.067 41.84 648.5 86 648.5C130.16 648.5 161 627.067 161 600.774V32.3708" fill="url(#paint0_linear_4_288)"/>
<path d="M11 32.3708V600.774C11 627.067 41.84 648.5 86 648.5C130.16 648.5 161 627.067 161 600.774V32.3708" stroke="#002E31" stroke-width="4" stroke-linecap="round" stroke-linejoin="round"/>
<path d="M171 19.3547V80.0964C171 89.6763 132.92 97.4512 86 97.4512C39.08 97.4512 1 89.6763 1 80.0964V19.3547C1 28.9346 39.08 36.7095 86 36.7095C132.92 36.7095 171 28.9346 171 19.3547Z" fill="#13A6AE" stroke="black" stroke-linecap="round" stroke-linejoin="round"/>
<path d="M133.51 94.4836V33.7419M146.1 31.6246V92.3663M119.08 96.0889V35.3472M156.48 29.0561V89.7977M103.12 97.1041V36.3624M164.32 26.1058V86.8475M86 97.4512V36.7095M169.27 22.8517V83.5935M68.88 97.1041V36.3624M171 19.3547V80.0964M52.92 96.0889V35.3472M38.49 94.4836V33.7419M25.9 92.3663V31.6246M15.52 89.7977V29.0561M7.67999 86.8475V26.1058M2.73 83.5935V22.8517M1 19.3547V80.0964" stroke="#002E31" stroke-linecap="round" stroke-linejoin="round"/>
<path d="M171 19.3548C171 23.9575 162.045 28.3718 146.104 31.6265C130.163 34.8811 108.543 36.7095 86 36.7095C63.4566 36.7095 41.8365 34.8811 25.8959 31.6265C9.95533 28.3718 1 23.9575 1 19.3548C1 14.752 9.95533 10.3378 25.8959 7.08311C41.8365 3.82846 63.4566 2 86 2C108.543 2 130.163 3.82846 146.104 7.08311C162.045 10.3378 171 14.752 171 19.3548Z" fill="#13A6AE" stroke="black" stroke-linecap="round" stroke-linejoin="round"/>
<path d="M130.56 20.2398C130.41 19.9361 130.4 19.6324 130.09 19.3374C129.49 18.7733 128.61 18.2353 127.47 17.7147C126.33 17.1941 124.93 16.7081 123.31 16.2482C121.69 15.7883 119.85 15.3371 117.81 14.9466C113.74 14.1656 108.88 13.5409 103.5 13.107C98.1199 12.6645 92.2099 12.4302 85.9999 12.4302C79.7899 12.4302 73.8799 12.6645 68.4999 13.107C63.1199 13.5409 58.2599 14.1656 54.1899 14.9466C52.1499 15.3371 50.3099 15.7883 48.6899 16.2482C47.0699 16.7081 45.6699 17.1941 44.5299 17.7147C43.3899 18.2353 42.5099 18.7733 41.9099 19.3374C41.5999 19.6324 41.5899 19.9361 41.4399 20.2398C43.7299 24.6132 62.6999 28.0495 85.9999 28.0495C109.3 28.0495 128.27 24.6132 130.56 20.2398Z" fill="#002E31" stroke="black" stroke-linecap="round" stroke-linejoin="round"/>
<path d="M86 10.6947C61.16 10.6947 41 14.5822 41 19.3721C41 19.6671 41.29 19.9448 41.44 20.2398C41.59 19.9361 41.6 19.6324 41.91 19.3374C42.51 18.7733 43.39 18.2353 44.53 17.7147C45.67 17.1941 47.07 16.7081 48.69 16.2482C50.31 15.7883 52.15 15.3371 54.19 14.9466C58.26 14.1657 63.12 13.5409 68.5 13.107C73.88 12.6645 79.79 12.4302 86 12.4302C92.21 12.4302 98.12 12.6645 103.5 13.107C108.88 13.5409 113.74 14.1657 117.81 14.9466C119.85 15.3371 121.69 15.7883 123.31 16.2482C124.93 16.7081 126.33 17.1941 127.47 17.7147C128.61 18.2353 129.49 18.7733 130.09 19.3374C130.4 19.6324 130.41 19.9361 130.56 20.2398C130.71 19.9448 131 19.6671 131 19.3721C131 14.5822 110.84 10.6947 86 10.6947Z" stroke="black" stroke-linecap="round" stroke-linejoin="round"/>
</g>
<defs>
<linearGradient id="paint0_linear_4_288" x1="85.5" y1="162.5" x2="83.822" y2="551.248" gradientUnits="userSpaceOnUse">
<stop offset="0.115385" stop-color="white"/>
<stop offset="0.115485" stop-color="#FF878E"/>
<stop offset="0.427885" stop-color="#EBC749"/>
<stop offset="0.620192" stop-color="#FAC00F"/>
<stop offset="0.855769" stop-color="#4EBCC2"/>
<stop offset="1" stop-color="#13A6AE"/>
</linearGradient>
<clipPath id="clip0_4_288">
<rect width="171" height="747.5" fill="white"/>
</clipPath>
</defs>
</svg>
