<svg width="278" height="400" viewBox="0 0 278 400" fill="none" xmlns="http://www.w3.org/2000/svg">
<path d="M160.501 39.7021C174.372 67.8769 196.749 103.12 217.534 138.668C238.341 174.253 257.685 210.362 263.433 238.245C271.677 278.233 262.673 316.938 239.103 344.994C215.475 373.119 177.716 389.943 129.698 387.102C79.9769 384.16 46.8145 361.116 28.7639 328.728C10.8726 296.625 8.18769 256.028 17.6965 218.139C36.3851 143.672 95.3811 88.2616 150.399 36.7178L160.501 27.2539V39.7021Z" fill="#F0B700" stroke="#13A6AE" stroke-width="12"/>
<path fill-rule="evenodd" clip-rule="evenodd" d="M154.326 41.9563C99.3609 93.514 42.2094 147.53 24.1161 219.687C5.75356 292.914 34.9159 374.886 129.999 380.515C222.187 385.975 272.495 315.909 256.747 239.444C245.77 186.133 182.021 98.9612 154.326 41.9607V41.9563Z" fill="#FABF0B"/>
<path fill-rule="evenodd" clip-rule="evenodd" d="M154.152 42.8159C99.5298 94.1149 42.7188 147.916 24.7157 219.776C6.44632 292.706 35.4064 374.322 129.945 379.922C221.604 385.355 271.606 315.585 255.936 239.435C245.015 186.323 181.64 99.5331 154.152 42.8086V42.8159Z" fill="#FAC00D"/>
<path fill-rule="evenodd" clip-rule="evenodd" d="M153.962 43.677C99.684 94.7185 43.2136 148.304 25.3008 219.881C7.12306 292.511 35.8821 373.772 129.878 379.343C221.008 384.748 270.703 315.273 255.111 239.439C244.244 186.527 181.244 100.118 153.962 43.6857V43.677Z" fill="#FAC00F"/>
<path fill-rule="evenodd" clip-rule="evenodd" d="M153.788 44.5381C99.8529 95.3221 43.723 148.691 25.9005 219.971C7.81444 292.303 36.3726 373.208 129.825 378.749C220.425 384.127 269.814 314.949 254.3 239.43C243.489 186.717 180.863 100.691 153.786 44.5352L153.788 44.5381Z" fill="#FAC110"/>
<path fill-rule="evenodd" clip-rule="evenodd" d="M153.613 45.3992C100.02 95.9255 44.2326 149.079 26.5002 220.06C8.50586 292.092 36.8629 372.641 129.771 378.154C219.843 383.505 268.924 314.623 253.49 239.419C242.733 186.907 180.48 101.261 153.612 45.3977L153.613 45.3992Z" fill="#FAC112"/>
<path fill-rule="evenodd" clip-rule="evenodd" d="M153.424 46.2619C100.175 96.5309 44.7273 149.468 27.0853 220.152C9.18263 291.885 37.3388 372.08 129.704 377.563C219.246 382.886 268.021 314.301 252.666 239.412C241.964 187.099 180.086 101.836 153.424 46.2488V46.2619Z" fill="#FAC213"/>
<path fill-rule="evenodd" clip-rule="evenodd" d="M153.249 47.1243C100.342 97.1345 45.2354 149.856 27.6865 220.259C9.87554 291.692 37.8306 371.532 129.651 376.986C218.665 382.282 267.132 313.991 251.857 239.418C241.21 187.305 179.705 102.422 153.249 47.1272V47.1243Z" fill="#FAC215"/>
<path fill-rule="evenodd" clip-rule="evenodd" d="M153.06 47.9882C100.496 97.7408 45.7317 150.247 28.2716 220.351C10.5523 291.486 38.3065 370.969 129.584 376.395C218.069 381.663 266.23 313.669 251.031 239.412C240.439 187.498 179.309 102.998 153.06 47.9795V47.9882Z" fill="#FAC317"/>
<path fill-rule="evenodd" clip-rule="evenodd" d="M152.885 48.8508C100.665 98.3461 46.2396 150.636 28.8711 220.444C11.2435 291.279 38.7967 370.408 129.531 375.804C217.486 381.045 265.34 313.347 250.221 239.405C239.683 187.69 178.927 103.571 152.885 48.845V48.8508Z" fill="#FAC318"/>
<path fill-rule="evenodd" clip-rule="evenodd" d="M152.711 49.715C100.832 98.9529 46.7491 151.027 29.4708 220.537C11.935 291.074 39.2873 369.847 129.478 375.214C216.904 380.428 264.452 313.026 249.411 239.398C238.929 187.884 178.547 104.146 152.711 49.696V49.715Z" fill="#FAC41A"/>
<path fill-rule="evenodd" clip-rule="evenodd" d="M152.522 50.5803C100.987 99.5591 47.2439 151.418 30.0559 220.645C12.6132 290.882 39.7632 369.3 129.41 374.652C216.308 379.839 263.547 312.733 248.586 239.422C238.159 188.107 178.15 104.75 152.522 50.5934V50.5803Z" fill="#FAC41B"/>
<path fill-rule="evenodd" clip-rule="evenodd" d="M152.347 51.4458C101.156 100.167 47.7535 151.811 30.6558 220.741C13.3033 290.678 40.2536 368.741 129.357 374.065C215.725 379.224 262.659 312.414 247.775 239.417C237.403 188.301 177.769 105.327 152.347 51.4603V51.4458Z" fill="#FAC51D"/>
<path fill-rule="evenodd" clip-rule="evenodd" d="M152.158 52.3113C101.309 100.775 48.2484 152.203 31.2409 220.835C13.9816 290.473 40.7296 368.181 129.289 373.476C215.127 378.608 261.754 312.094 246.951 239.413C236.633 188.496 177.373 105.903 152.157 52.3142L152.158 52.3113Z" fill="#FAC51E"/>
<path fill-rule="evenodd" clip-rule="evenodd" d="M151.968 53.1765C101.463 101.383 48.7431 152.595 31.8273 220.929C14.6597 290.269 41.2065 367.62 129.223 372.885C214.533 377.99 260.853 311.773 246.128 239.406C235.865 188.689 176.978 106.478 151.97 53.1809L151.968 53.1765Z" fill="#FAC620"/>
<path fill-rule="evenodd" clip-rule="evenodd" d="M151.794 54.0436C101.632 101.993 49.2527 152.988 32.4271 221.026C15.3512 290.066 41.6972 367.063 129.17 372.299C213.95 377.377 259.964 311.454 245.317 239.404C235.109 188.888 176.597 107.056 151.796 54.0364L151.794 54.0436Z" fill="#FAC621"/>
<path fill-rule="evenodd" clip-rule="evenodd" d="M151.605 54.9119C101.784 102.602 49.7474 153.382 33.0121 221.138C16.0279 289.88 42.1729 366.515 129.101 371.727C213.353 376.777 259.06 311.151 244.492 239.415C234.339 189.098 176.201 107.649 151.605 54.9206V54.9119Z" fill="#FAC722"/>
<path fill-rule="evenodd" clip-rule="evenodd" d="M151.43 55.7788C101.953 103.212 50.2568 153.776 33.6117 221.234C16.7192 289.676 42.6632 365.957 129.049 371.139C212.771 376.162 258.171 310.832 243.681 239.413C233.583 189.295 175.818 108.227 151.43 55.7759V55.7788Z" fill="#FAC724"/>
<path fill-rule="evenodd" clip-rule="evenodd" d="M151.241 56.6472C102.106 103.822 50.7518 154.17 34.197 221.33C17.3961 289.473 43.1391 365.399 128.981 370.552C212.174 375.547 257.267 310.514 242.856 239.409C232.813 189.491 175.423 108.807 151.241 56.6472Z" fill="#FAC725"/>
<path fill-rule="evenodd" clip-rule="evenodd" d="M151.051 57.5156C102.26 104.433 51.2465 154.566 34.7819 221.443C18.0728 289.285 43.6149 364.856 128.913 369.98C211.577 374.949 256.363 310.21 242.032 239.422C232.043 189.703 175.028 109.398 151.051 57.5156Z" fill="#FAC827"/>
<path fill-rule="evenodd" clip-rule="evenodd" d="M150.862 58.3855C102.414 105.044 51.7413 154.962 35.367 221.542C18.7496 289.087 44.0905 364.302 128.845 369.397C210.98 374.338 255.459 309.896 241.206 239.421C231.273 189.903 174.63 109.98 150.862 58.3884V58.3855Z" fill="#FAC828"/>
<path fill-rule="evenodd" clip-rule="evenodd" d="M150.673 59.2551C102.569 105.657 52.2364 155.359 35.9523 221.641C19.4265 288.886 44.5665 363.746 128.778 368.812C210.383 373.726 254.556 309.58 240.381 239.421C230.503 190.102 174.235 110.56 150.673 59.2609V59.2551Z" fill="#FAC929"/>
<path fill-rule="evenodd" clip-rule="evenodd" d="M150.498 60.1264C102.736 106.27 52.7458 155.756 36.5519 221.741C20.1179 288.688 45.057 363.192 128.724 368.229C209.801 373.115 253.667 309.264 239.571 239.421C229.747 190.301 173.853 111.142 150.497 60.1191L150.498 60.1264Z" fill="#FAC92B"/>
<path fill-rule="evenodd" clip-rule="evenodd" d="M150.309 60.9978C102.891 106.884 53.2407 156.154 37.1385 221.841C20.7962 288.488 45.5341 362.637 128.657 367.645C209.205 372.504 252.763 308.949 238.747 239.422C228.978 190.502 173.459 111.724 150.309 60.9934V60.9978Z" fill="#FBCA2C"/>
<path fill-rule="evenodd" clip-rule="evenodd" d="M150.12 61.8691C103.045 107.498 53.7354 156.551 37.7235 221.956C21.4743 288.303 46.0099 362.097 128.59 367.08C208.609 371.912 251.861 308.654 237.923 239.441C228.209 190.72 173.063 112.324 150.121 61.8706L150.12 61.8691Z" fill="#FBCA2D"/>
<path fill-rule="evenodd" clip-rule="evenodd" d="M149.931 62.7417C103.198 108.112 54.2304 156.95 38.3087 222.058C22.1498 288.106 46.4857 361.545 128.522 366.499C208.011 371.303 250.956 308.342 237.096 239.444C227.437 190.924 172.666 112.908 149.929 62.7461L149.931 62.7417Z" fill="#FBCA2F"/>
<path fill-rule="evenodd" clip-rule="evenodd" d="M149.741 63.6145C103.352 108.727 54.7252 157.349 38.8937 222.159C22.828 287.909 46.9616 360.99 128.455 365.918C207.415 370.695 250.053 308.028 236.272 239.448C226.668 191.127 172.271 113.494 149.741 63.6086V63.6145Z" fill="#FBCB30"/>
<path fill-rule="evenodd" clip-rule="evenodd" d="M149.552 64.4888C103.506 109.344 55.2201 157.75 39.4789 222.278C23.5048 287.728 47.4374 360.454 128.386 365.353C206.817 370.103 249.149 307.733 235.447 239.466C225.898 191.344 171.874 114.092 149.552 64.499V64.4888Z" fill="#FBCB31"/>
<path fill-rule="evenodd" clip-rule="evenodd" d="M149.363 65.3628C103.659 109.959 55.7149 158.151 40.064 222.381C24.1816 287.532 47.9135 359.902 128.319 364.773C206.222 369.496 248.246 307.422 234.623 239.471C225.128 191.549 171.479 114.679 149.363 65.3628Z" fill="#FBCC32"/>
<path fill-rule="evenodd" clip-rule="evenodd" d="M149.174 66.2371C103.813 110.576 56.2099 158.551 40.6492 222.484C24.8585 287.337 48.3892 359.351 128.251 364.195C205.624 368.89 247.341 307.113 233.798 239.476C224.358 191.753 171.083 115.264 149.174 66.24V66.2371Z" fill="#FBCC34"/>
<path fill-rule="evenodd" clip-rule="evenodd" d="M148.985 67.1125C103.966 111.194 56.7047 158.954 41.2356 222.589C25.5366 287.142 48.8664 358.801 128.186 363.616C205.03 368.284 246.441 306.801 232.975 239.482C223.59 191.959 170.688 115.851 148.986 67.1038L148.985 67.1125Z" fill="#FBCC35"/>
<path fill-rule="evenodd" clip-rule="evenodd" d="M148.795 67.9853C104.12 111.809 57.1995 159.353 41.8208 222.691C26.2135 286.944 49.3423 358.248 128.117 363.034C204.431 367.675 245.534 306.489 232.148 239.483C222.819 192.16 170.291 116.433 148.795 67.978V67.9853Z" fill="#FBCD36"/>
<path fill-rule="evenodd" clip-rule="evenodd" d="M148.606 68.8581C104.275 112.425 57.6943 159.753 42.4058 222.807C26.8902 286.762 49.8179 357.711 128.05 362.468C203.835 367.082 244.633 306.192 231.325 239.503C222.05 192.378 169.897 117.034 148.608 68.8552L148.606 68.8581Z" fill="#FBCD37"/>
<path fill-rule="evenodd" clip-rule="evenodd" d="M148.417 69.7454C104.428 113.053 58.1894 160.166 42.991 222.924C27.5671 286.579 50.294 357.173 127.982 361.903C203.239 366.489 243.729 305.896 230.499 239.52C221.279 192.595 169.499 117.632 148.417 69.7454Z" fill="#FBCE38"/>
<path fill-rule="evenodd" clip-rule="evenodd" d="M148.213 70.6182C104.567 113.668 58.6695 160.566 43.5614 223.026C28.2292 286.383 50.7551 356.62 127.899 361.321C202.627 365.88 242.811 305.581 229.659 239.523C220.493 192.797 169.088 118.217 148.212 70.6211L148.213 70.6182Z" fill="#FBCE3A"/>
<path fill-rule="evenodd" clip-rule="evenodd" d="M148.024 71.5053C104.722 114.298 59.1645 160.979 44.1467 223.142C28.9062 286.2 51.2312 356.082 127.832 360.756C202.03 365.287 241.906 305.285 228.835 239.541C219.724 193.015 168.694 118.815 148.024 71.4966V71.5053Z" fill="#FBCE3B"/>
<path fill-rule="evenodd" clip-rule="evenodd" d="M147.835 72.3779C104.874 114.913 59.6593 161.377 44.7318 223.258C29.583 286.016 51.7068 355.543 127.763 360.187C201.432 364.692 241.003 304.986 228.009 239.558C218.954 193.232 168.296 119.414 147.835 72.3867V72.3779Z" fill="#FBCF3C"/>
<path fill-rule="evenodd" clip-rule="evenodd" d="M147.645 73.251C105.028 115.527 60.1541 161.777 45.3168 223.36C30.2598 285.818 52.1827 354.989 127.696 359.607C200.836 364.084 240.098 304.675 227.185 239.561C218.185 193.434 167.901 119.997 147.645 73.248V73.251Z" fill="#FBCF3D"/>
<path fill-rule="evenodd" clip-rule="evenodd" d="M147.442 74.1379C105.168 116.157 60.6332 162.19 45.889 223.476C30.9236 285.636 52.6454 354.45 127.615 359.039C200.225 363.489 239.182 304.375 226.346 239.578C217.4 193.65 167.491 120.596 147.442 74.1379Z" fill="#FBD03E"/>
<path fill-rule="evenodd" clip-rule="evenodd" d="M147.253 75.0253C105.323 116.787 61.1296 162.605 46.4741 223.592C31.6018 285.452 53.1212 353.912 127.548 358.473C199.631 362.896 238.28 304.078 225.523 239.597C216.632 193.869 167.096 121.195 147.253 75.0151V75.0253Z" fill="#FBD03F"/>
<path fill-rule="evenodd" clip-rule="evenodd" d="M147.064 75.8979C105.476 117.402 61.6242 163.003 47.059 223.709C32.2784 285.271 53.5968 353.374 127.48 357.908C199.032 362.303 237.376 303.782 224.697 239.614C215.861 194.087 166.7 121.795 147.064 75.9052V75.8979Z" fill="#FBD040"/>
<path fill-rule="evenodd" clip-rule="evenodd" d="M146.86 76.7856C105.615 118.031 62.1033 163.418 47.6298 223.826C32.9409 285.088 54.0583 352.837 127.397 357.342C198.421 361.71 236.456 303.483 223.857 239.631C215.077 194.303 166.289 122.391 146.86 76.7798V76.7856Z" fill="#FBD142"/>
<path fill-rule="evenodd" clip-rule="evenodd" d="M146.67 77.6726C105.768 118.66 62.598 163.831 48.2147 223.942C33.6175 284.905 54.5341 352.298 127.33 356.775C197.824 361.116 235.553 303.185 223.032 239.649C214.306 194.521 165.892 122.993 146.67 77.6726Z" fill="#FBD143"/>
<path fill-rule="evenodd" clip-rule="evenodd" d="M146.467 78.5454C105.908 119.276 63.0784 164.23 48.7854 224.044C34.2797 284.707 54.9953 351.746 127.248 356.194C197.214 360.507 234.635 302.873 222.193 239.651C213.522 194.721 165.483 123.574 146.467 78.5454Z" fill="#FBD144"/>
<path fill-rule="evenodd" clip-rule="evenodd" d="M146.277 79.4329C106.062 119.905 63.5732 164.644 49.3705 224.168C34.9569 284.533 55.4712 351.215 127.18 355.636C196.616 359.922 233.731 302.584 221.368 239.678C212.751 194.948 165.087 124.185 146.277 79.4329Z" fill="#FBD245"/>
<path fill-rule="evenodd" clip-rule="evenodd" d="M146.074 80.3198C106.2 120.535 64.0535 165.057 49.941 224.289C35.6188 284.354 55.9324 350.681 127.097 355.073C196.005 359.331 232.813 302.289 220.529 239.698C211.967 195.169 164.675 124.784 146.072 80.3242L146.074 80.3198Z" fill="#FBD246"/>
<path fill-rule="evenodd" clip-rule="evenodd" d="M145.87 81.2073C106.34 121.164 64.5338 165.472 50.5115 224.409C36.2813 284.176 56.3939 350.147 127.015 354.51C195.393 358.742 231.896 301.995 219.69 239.721C211.183 195.39 164.266 125.388 145.87 81.2043V81.2073Z" fill="#FBD247"/>
<path fill-rule="evenodd" clip-rule="evenodd" d="M145.681 82.0945C106.494 121.793 65.0286 165.885 51.098 224.529C36.9596 283.997 56.8711 349.613 126.948 353.949C194.798 358.153 230.992 301.703 218.865 239.744C210.413 195.613 163.87 125.991 145.681 82.1003V82.0945Z" fill="#FBD348"/>
<path fill-rule="evenodd" clip-rule="evenodd" d="M145.477 82.9819C106.632 122.423 65.5088 166.3 51.6685 224.649C37.6218 283.816 57.3321 349.076 126.867 353.384C194.186 357.561 230.074 301.408 218.026 239.763C209.629 195.831 163.459 126.592 145.478 82.9775L145.477 82.9819Z" fill="#FBD349"/>
<path fill-rule="evenodd" clip-rule="evenodd" d="M145.273 83.8691C106.772 123.053 65.9892 166.713 52.2392 224.77C38.2843 283.638 57.7937 348.543 126.784 352.823C193.574 356.973 229.155 301.114 217.186 239.786C208.844 196.054 163.049 127.196 145.273 83.8735V83.8691Z" fill="#FBD34A"/>
<path fill-rule="evenodd" clip-rule="evenodd" d="M145.084 84.7565C106.927 123.683 66.4842 167.127 52.8243 224.889C38.9613 283.459 58.2693 348.008 126.717 352.259C192.979 356.381 228.253 300.819 216.363 239.805C208.076 196.274 162.655 127.797 145.085 84.7507L145.084 84.7565Z" fill="#FBD44B"/>
<path fill-rule="evenodd" clip-rule="evenodd" d="M144.88 85.6436C107.065 124.311 66.9644 167.54 53.3948 225.009C39.6236 283.28 58.7307 347.473 126.634 351.697C192.366 355.792 227.334 300.526 215.521 239.828C207.289 196.496 162.243 128.4 144.879 85.6465L144.88 85.6436Z" fill="#FBD44C"/>
<path fill-rule="evenodd" clip-rule="evenodd" d="M144.676 86.531C107.205 124.941 67.4448 167.953 53.9654 225.128C40.2859 283.101 59.1918 346.937 126.551 351.132C191.754 355.2 226.416 300.231 214.681 239.847C206.504 196.714 161.831 129.001 144.675 86.5237L144.676 86.531Z" fill="#FCD44D"/>
<path fill-rule="evenodd" clip-rule="evenodd" d="M144.473 87.4182C107.344 125.571 67.9252 168.368 54.5362 225.248C40.9487 282.92 59.6534 346.402 126.47 350.57C191.143 354.61 225.497 299.936 213.843 239.869C205.72 196.935 161.422 129.603 144.473 87.4182Z" fill="#FCD54E"/>
<path fill-rule="evenodd" clip-rule="evenodd" d="M144.269 88.3198C107.483 126.215 68.4055 168.795 55.108 225.383C41.6122 282.756 60.116 345.883 126.388 350.022C190.534 354.034 224.581 299.657 213.005 239.904C204.937 197.169 161.012 130.219 144.269 88.311V88.3198Z" fill="#FCD54F"/>
<path fill-rule="evenodd" clip-rule="evenodd" d="M144.065 89.207C107.622 126.843 68.8858 169.21 55.6786 225.504C42.2747 282.577 60.5774 345.35 126.307 349.46C189.922 353.446 223.662 299.364 212.166 239.927C204.154 197.393 160.602 130.823 144.067 89.207H144.065Z" fill="#FCD550"/>
<path fill-rule="evenodd" clip-rule="evenodd" d="M143.861 90.1089C107.762 127.488 69.366 169.638 56.2491 225.638C42.937 282.413 61.0384 344.829 126.223 348.911C189.31 352.869 222.743 299.084 211.325 239.961C203.367 197.626 160.19 131.438 143.861 90.1133V90.1089Z" fill="#FCD651"/>
<path fill-rule="evenodd" clip-rule="evenodd" d="M143.658 90.9963C107.9 128.118 69.8465 170.051 56.8198 225.757C43.5995 282.232 61.4999 344.293 126.142 348.347C188.7 352.278 221.827 298.788 210.487 239.982C202.584 197.847 159.782 132.041 143.658 90.9934V90.9963Z" fill="#FCD652"/>
<path fill-rule="evenodd" clip-rule="evenodd" d="M143.454 91.8982C108.04 128.762 70.3265 170.48 57.3901 225.892C44.2615 282.07 61.9609 343.774 126.059 347.8C188.088 351.704 220.908 298.51 209.647 240.019C201.799 198.083 159.369 132.659 143.454 91.9026V91.8982Z" fill="#FCD653"/>
<path fill-rule="evenodd" clip-rule="evenodd" d="M143.25 92.7851C108.178 129.39 70.8071 170.893 57.9609 226.011C44.9241 281.889 62.4223 343.239 125.976 347.236C187.475 351.113 219.988 298.215 208.807 240.039C201.014 198.302 158.959 133.259 143.25 92.7808V92.7851Z" fill="#FCD754"/>
<path fill-rule="evenodd" clip-rule="evenodd" d="M143.046 93.687C108.318 130.035 71.2872 171.322 58.5312 226.146C45.5863 281.724 62.8834 342.717 125.895 346.688C186.866 350.537 219.071 297.935 207.967 240.076C200.229 198.54 158.549 133.879 143.045 93.6914L143.046 93.687Z" fill="#FCD755"/>
<path fill-rule="evenodd" clip-rule="evenodd" d="M142.842 94.5744C108.458 130.665 71.7676 171.735 59.1018 226.266C46.2486 281.544 63.3446 342.183 125.813 346.124C186.254 349.946 218.153 297.64 207.129 240.096C199.445 198.759 158.14 134.478 142.842 94.5686V94.5744Z" fill="#FCD756"/>
<path fill-rule="evenodd" clip-rule="evenodd" d="M142.624 95.4763C108.583 131.309 72.2332 172.164 59.6578 226.4C46.8966 281.381 63.7914 341.663 125.715 345.577C185.628 349.372 217.22 297.362 206.274 240.131C198.646 198.994 157.713 135.097 142.624 95.4763Z" fill="#FCD857"/>
<path fill-rule="evenodd" clip-rule="evenodd" d="M142.42 96.3782C108.721 131.953 72.7136 172.592 60.2298 226.535C47.5602 281.216 64.2539 341.144 125.634 345.029C185.017 348.796 216.303 297.081 205.436 240.167C197.862 199.229 157.304 135.713 142.42 96.3782Z" fill="#FCD858"/>
<path fill-rule="evenodd" clip-rule="evenodd" d="M142.217 97.28C108.861 132.596 73.194 173.021 60.8004 226.671C48.2228 281.053 64.7157 340.624 125.553 344.482C184.407 348.221 215.386 296.803 204.598 240.205C197.079 199.466 156.894 136.332 142.218 97.2815L142.217 97.28Z" fill="#FCD859"/>
<path fill-rule="evenodd" clip-rule="evenodd" d="M141.998 98.1819C108.986 133.241 73.6596 173.449 61.3563 226.804C48.8705 280.887 65.1622 340.103 125.455 343.932C183.78 347.644 214.451 296.522 203.742 240.238C196.278 199.7 156.467 136.945 141.997 98.1804L141.998 98.1819Z" fill="#FCD85A"/>
<path fill-rule="evenodd" clip-rule="evenodd" d="M141.794 99.0835C109.124 133.885 74.1399 173.876 61.9269 226.938C49.5329 280.721 65.6236 339.582 125.373 343.383C183.17 347.068 213.534 296.242 202.903 240.273C195.494 199.934 156.058 137.563 141.794 99.0835Z" fill="#FCD95B"/>
<path fill-rule="evenodd" clip-rule="evenodd" d="M141.576 99.9854C109.25 134.529 74.606 174.305 62.4832 227.073C50.1809 280.557 66.0705 339.063 125.276 342.836C182.543 346.493 212.6 295.963 202.049 240.311C194.695 200.171 155.632 138.179 141.576 99.9854Z" fill="#FCD95B"/>
<path fill-rule="evenodd" clip-rule="evenodd" d="M141.373 100.887C109.388 135.172 75.0862 174.733 63.0536 227.207C50.8431 280.392 66.5315 338.542 125.195 342.286C181.933 345.917 211.683 295.682 201.21 240.346C193.911 200.406 155.222 138.797 141.373 100.887Z" fill="#FCD95C"/>
<path fill-rule="evenodd" clip-rule="evenodd" d="M141.154 101.789C109.513 135.817 75.5518 175.162 63.6094 227.343C51.4908 280.229 66.9781 338.024 125.097 341.74C181.305 345.344 210.75 295.406 200.355 240.383C193.111 200.642 154.798 139.414 141.154 101.789Z" fill="#FCDA5D"/>
<path fill-rule="evenodd" clip-rule="evenodd" d="M140.951 102.691C109.653 136.461 76.0324 175.59 64.1817 227.476C52.1547 280.063 67.4412 337.5 125.017 341.189C180.697 344.765 209.833 295.124 199.518 240.417C192.329 200.877 154.389 140.03 140.952 102.691H140.951Z" fill="#FCDA5E"/>
<path fill-rule="evenodd" clip-rule="evenodd" d="M140.732 103.593C109.776 137.106 76.498 176.019 64.7376 227.612C52.8026 279.9 67.8877 336.982 124.919 340.643C180.07 344.192 208.9 294.845 198.664 240.454C191.529 201.113 153.961 140.647 140.732 103.593Z" fill="#FCDA5F"/>
<path fill-rule="evenodd" clip-rule="evenodd" d="M140.514 104.494C109.902 137.748 76.9638 176.447 65.2936 227.746C53.4503 279.734 68.3344 336.461 124.822 340.093C179.444 343.615 207.967 294.565 197.81 240.489C190.73 201.347 153.538 141.264 140.514 104.494Z" fill="#FCDA60"/>
<path fill-rule="evenodd" clip-rule="evenodd" d="M140.31 105.411C110.041 138.407 77.444 176.89 65.864 227.895C54.1126 279.584 68.7957 335.956 124.74 339.561C178.833 343.055 207.049 294.301 196.969 240.54C189.945 201.597 153.127 141.895 140.31 105.411Z" fill="#FCDB61"/>
<path fill-rule="evenodd" clip-rule="evenodd" d="M140.092 106.313C110.165 139.052 77.9098 177.318 66.4201 228.029C54.7605 279.42 69.2423 335.436 124.643 339.011C178.205 342.478 206.116 294.02 196.115 240.575C189.145 201.831 152.701 142.512 140.09 106.313H140.092Z" fill="#FCDB62"/>
<path fill-rule="evenodd" clip-rule="evenodd" d="M139.873 107.229C110.29 139.71 78.3757 177.76 66.9762 228.177C55.4085 279.268 69.6893 334.929 124.547 338.476C177.581 341.916 205.184 293.754 195.262 240.623C188.347 202.08 152.277 143.143 139.873 107.229Z" fill="#FCDB63"/>
<path fill-rule="evenodd" clip-rule="evenodd" d="M139.655 108.131C110.415 140.355 78.8412 178.189 67.532 228.313C56.056 279.106 70.1356 334.411 124.449 337.931C176.953 341.344 204.251 293.477 194.408 240.662C187.548 202.319 151.852 143.762 139.655 108.132V108.131Z" fill="#FCDC63"/>
<path fill-rule="evenodd" clip-rule="evenodd" d="M139.437 109.047C110.539 141.013 79.307 178.632 68.0881 228.462C56.7039 278.955 70.5823 333.905 124.352 337.396C176.328 340.781 203.317 293.211 193.552 240.71C186.747 202.566 151.424 144.39 139.434 109.046L139.437 109.047Z" fill="#FCDC64"/>
<path fill-rule="evenodd" clip-rule="evenodd" d="M139.218 109.964C110.664 141.671 79.7714 179.075 68.6441 228.611C57.3518 278.805 71.0293 333.4 124.256 336.863C175.702 340.221 202.386 292.947 192.699 240.762C185.949 202.818 151.001 145.024 139.217 109.965L139.218 109.964Z" fill="#FCDC65"/>
<path fill-rule="evenodd" clip-rule="evenodd" d="M139 110.865C110.789 142.315 80.2372 179.502 69.2016 228.745C58.0009 278.638 71.4773 332.879 124.161 336.313C175.079 339.643 201.454 292.665 191.847 240.796C185.152 203.05 150.578 145.639 139.001 110.864L139 110.865Z" fill="#FCDC66"/>
<path fill-rule="evenodd" clip-rule="evenodd" d="M138.781 111.782C110.913 142.974 80.7028 179.946 69.7575 228.894C58.6488 278.49 71.924 332.374 124.063 335.78C174.451 339.083 200.52 292.401 190.993 240.848C184.352 203.303 150.152 146.27 138.781 111.782Z" fill="#FCDD67"/>
<path fill-rule="evenodd" clip-rule="evenodd" d="M138.563 112.698C111.039 143.632 81.1689 180.388 70.3138 229.043C59.2969 278.339 72.371 331.867 123.966 335.245C173.826 338.521 199.588 292.135 190.137 240.896C183.552 203.55 149.726 146.902 138.562 112.697L138.563 112.698Z" fill="#FCDD68"/>
<path fill-rule="evenodd" clip-rule="evenodd" d="M138.345 113.615C111.164 144.291 81.6346 180.832 70.8697 229.192C59.9446 278.19 72.8176 331.361 123.87 334.712C173.2 337.961 198.655 291.872 189.285 240.948C182.754 203.802 149.302 147.533 138.345 113.615Z" fill="#FCDD68"/>
<path fill-rule="evenodd" clip-rule="evenodd" d="M138.112 114.531C111.273 144.949 82.0856 181.274 71.411 229.34C60.5777 278.038 73.2497 330.854 123.758 334.178C172.559 337.399 197.707 291.605 188.415 240.997C181.939 204.05 148.862 148.165 138.112 114.531Z" fill="#FCDD69"/>
<path fill-rule="evenodd" clip-rule="evenodd" d="M137.894 115.447C111.398 145.608 82.5516 181.717 71.9672 229.489C61.2258 277.887 73.6968 330.348 123.662 333.643C171.933 336.837 196.776 291.339 187.563 241.047C181.141 204.301 148.437 148.795 137.894 115.447Z" fill="#FCDE6A"/>
<path fill-rule="evenodd" clip-rule="evenodd" d="M137.676 116.364C111.523 146.268 83.0174 182.16 72.5232 229.64C61.8733 277.739 74.1435 329.845 123.565 333.112C171.308 336.279 195.842 291.077 186.709 241.1C180.342 204.553 148.011 149.43 137.676 116.365V116.364Z" fill="#FCDE6B"/>
<path fill-rule="evenodd" clip-rule="evenodd" d="M137.443 117.28C111.632 146.925 83.4685 182.602 73.0661 229.788C62.5084 277.589 74.5772 329.339 123.455 332.576C170.669 335.716 194.897 290.811 185.841 241.148C179.529 204.8 147.573 150.058 137.443 117.279V117.28Z" fill="#FCDE6C"/>
<path fill-rule="evenodd" clip-rule="evenodd" d="M137.224 118.211C111.757 147.598 83.9339 183.06 73.6217 229.952C63.1557 277.453 75.0234 328.848 123.357 332.058C170.043 335.17 193.964 290.56 184.986 241.214C178.73 205.066 147.148 150.705 137.224 118.211Z" fill="#FCDE6C"/>
<path fill-rule="evenodd" clip-rule="evenodd" d="M136.991 119.127C111.867 148.258 84.3855 183.503 74.1636 230.1C63.7891 277.303 75.4558 328.342 123.247 331.523C169.402 334.607 193.018 290.294 184.119 241.263C177.917 205.314 146.71 151.335 136.993 119.126L136.991 119.127Z" fill="#FCDF6D"/>
<path fill-rule="evenodd" clip-rule="evenodd" d="M136.773 120.058C111.992 148.931 84.8509 183.96 74.7192 230.264C64.4368 277.167 75.9023 327.851 123.149 331.004C168.776 334.062 192.083 290.044 183.264 241.329C177.118 205.579 146.283 151.984 136.773 120.059V120.058Z" fill="#FDDF6E"/>
<path fill-rule="evenodd" clip-rule="evenodd" d="M136.54 120.974C112.102 149.588 85.3022 184.403 75.2607 230.413C65.0699 277.016 76.3344 327.345 123.038 330.469C168.135 333.499 191.136 289.777 182.396 241.377C176.304 205.828 145.844 152.614 136.54 120.974Z" fill="#FDDF6F"/>
<path fill-rule="evenodd" clip-rule="evenodd" d="M136.322 121.906C112.227 150.262 85.768 184.861 75.8168 230.577C65.718 276.881 76.7813 326.855 122.941 329.951C167.509 332.954 190.203 289.528 181.541 241.444C175.504 206.094 145.419 153.261 136.32 121.907L136.322 121.906Z" fill="#FDDF6F"/>
<path fill-rule="evenodd" clip-rule="evenodd" d="M136.089 122.822C112.337 150.921 86.2194 185.304 76.3584 230.726C66.3515 276.732 77.2136 326.35 122.829 329.418C166.868 332.393 189.255 289.263 180.672 241.493C174.69 206.342 144.978 153.89 136.088 122.821L136.089 122.822Z" fill="#FDE070"/>
<path fill-rule="evenodd" clip-rule="evenodd" d="M135.856 123.753C112.448 151.594 86.6707 185.76 76.8999 230.89C66.9848 276.597 77.6459 325.858 122.719 328.899C166.228 331.848 188.31 289.014 179.805 241.56C173.878 206.608 144.54 154.537 135.856 123.753Z" fill="#FDE071"/>
<path fill-rule="evenodd" clip-rule="evenodd" d="M135.623 124.684C112.556 152.268 87.1217 186.218 77.4412 231.053C67.6176 276.461 78.0777 325.366 122.607 328.38C165.588 331.301 187.362 288.764 178.936 241.623C173.064 206.871 144.1 155.183 135.623 124.684Z" fill="#FDE072"/>
<path fill-rule="evenodd" clip-rule="evenodd" d="M135.39 125.614C112.667 152.939 87.573 186.675 77.9827 231.217C68.2513 276.326 78.5101 324.875 122.496 327.86C164.947 330.754 186.414 288.512 178.067 241.688C172.25 207.137 143.659 155.83 135.389 125.616L135.39 125.614Z" fill="#FDE073"/>
<path fill-rule="evenodd" clip-rule="evenodd" d="M135.157 126.545C112.778 153.613 88.0239 187.133 78.5254 231.38C68.8856 276.189 78.9434 324.383 122.385 327.341C164.308 330.207 185.468 288.261 177.199 241.752C171.437 207.4 143.221 156.474 135.157 126.545Z" fill="#FDE173"/>
<path fill-rule="evenodd" clip-rule="evenodd" d="M134.924 127.476C112.887 154.286 88.475 187.59 79.0667 231.543C69.5185 276.052 79.3753 323.892 122.275 326.82C163.667 329.659 184.522 288.01 176.332 241.816C170.624 207.664 142.782 157.118 134.926 127.476H134.924Z" fill="#FDE174"/>
<path fill-rule="evenodd" clip-rule="evenodd" d="M134.692 128.407C112.997 154.958 88.9265 188.047 79.6084 231.707C70.1524 275.918 79.8079 323.401 122.163 326.302C163.027 329.113 183.573 287.759 175.463 241.882C169.81 207.928 142.342 157.765 134.692 128.407Z" fill="#FDE175"/>
<path fill-rule="evenodd" clip-rule="evenodd" d="M134.458 129.338C113.108 155.632 89.3774 188.504 80.1496 231.87C70.7851 275.781 80.2396 322.91 122.05 325.781C162.385 328.565 182.625 287.508 174.592 241.946C168.994 208.192 141.9 158.411 134.457 129.338H134.458Z" fill="#FDE176"/>
<path fill-rule="evenodd" clip-rule="evenodd" d="M134.226 130.269C113.217 156.305 89.8288 188.963 80.6912 232.035C71.4185 275.648 80.672 322.421 121.94 325.264C161.746 328.021 181.679 287.26 173.725 242.012C168.182 208.458 141.462 159.057 134.226 130.269Z" fill="#FDE276"/>
<path fill-rule="evenodd" clip-rule="evenodd" d="M133.993 131.215C113.328 156.994 90.2803 189.435 81.2344 232.213C72.0537 275.526 81.1061 321.944 121.83 324.759C161.106 327.488 180.732 287.023 172.858 242.091C167.37 208.736 141.023 159.718 133.993 131.213V131.215Z" fill="#FDE277"/>
<path fill-rule="evenodd" clip-rule="evenodd" d="M133.745 132.145C113.424 157.667 90.7166 189.891 81.7609 232.377C72.6721 275.39 81.5234 321.453 121.704 324.24C160.452 326.943 179.771 286.772 171.975 242.156C166.542 209.001 140.57 160.363 133.747 132.145H133.745Z" fill="#FDE278"/>
<path fill-rule="evenodd" clip-rule="evenodd" d="M133.513 133.091C113.533 158.353 91.1681 190.364 82.3026 232.554C73.3053 275.268 81.9558 320.976 121.592 323.735C159.811 326.41 178.824 286.537 171.107 242.236C165.729 209.28 140.131 161.025 133.513 133.091Z" fill="#FDE278"/>
<path fill-rule="evenodd" clip-rule="evenodd" d="M133.265 134.022C113.629 159.027 91.6046 190.82 82.8294 232.718C73.9242 275.134 82.3733 320.485 121.467 323.216C159.157 325.863 177.862 286.286 170.223 242.299C164.9 209.543 139.675 161.67 133.265 134.022Z" fill="#FDE379"/>
<path fill-rule="evenodd" clip-rule="evenodd" d="M133.032 134.967C113.738 159.715 92.0557 191.293 83.3707 232.896C74.5571 275.012 82.8053 320.008 121.355 322.711C158.515 325.331 176.914 286.05 169.354 242.379C164.086 209.824 139.236 162.332 133.032 134.967Z" fill="#FDE37A"/>
<path fill-rule="evenodd" clip-rule="evenodd" d="M132.785 135.913C113.835 160.403 92.4925 191.765 83.8978 233.074C75.1759 274.892 83.2229 319.53 121.23 322.205C157.862 324.798 175.954 285.812 168.473 242.458C163.259 210.102 138.783 162.991 132.785 135.913Z" fill="#FDE37B"/>
<path fill-rule="evenodd" clip-rule="evenodd" d="M132.538 136.858C113.931 161.089 92.9293 192.235 84.4249 233.252C75.795 274.771 83.6408 319.055 121.103 321.702C157.206 324.268 174.99 285.578 167.589 242.538C162.43 210.381 138.328 163.652 132.538 136.858Z" fill="#FDE37B"/>
<path fill-rule="evenodd" clip-rule="evenodd" d="M132.305 137.803C114.041 161.777 93.3803 192.708 84.966 233.429C76.4278 274.648 84.0726 318.576 120.991 321.195C156.565 323.733 174.043 285.34 166.719 242.616C161.615 210.658 137.888 164.311 132.305 137.803Z" fill="#FDE47C"/>
<path fill-rule="evenodd" clip-rule="evenodd" d="M132.057 138.749C114.136 162.465 93.8171 193.18 85.4931 233.609C77.0467 274.528 84.4905 318.102 120.866 320.693C155.91 323.204 173.082 285.106 165.837 242.697C160.788 210.938 137.434 164.973 132.057 138.749Z" fill="#FDE47D"/>
<path fill-rule="evenodd" clip-rule="evenodd" d="M131.81 139.695C114.232 163.154 94.252 193.653 86.0197 233.786C77.6652 274.408 84.9077 317.625 120.739 320.187C155.255 322.671 172.118 284.869 164.953 242.776C159.959 211.218 136.981 165.632 131.81 139.695Z" fill="#FDE47D"/>
<path fill-rule="evenodd" clip-rule="evenodd" d="M131.562 140.64C114.328 163.84 94.6903 194.124 86.5482 233.965C78.2855 274.287 85.3271 317.149 120.616 319.683C154.602 322.14 171.159 284.634 164.073 242.856C159.133 211.497 136.527 166.294 131.564 140.64H131.562Z" fill="#FDE47E"/>
<path fill-rule="evenodd" clip-rule="evenodd" d="M131.315 141.585C114.422 164.527 95.1255 194.596 87.0751 234.142C78.9041 274.165 85.7446 316.671 120.489 319.177C153.945 321.607 170.197 284.396 163.187 242.935C158.303 211.775 136.071 166.954 131.313 141.585H131.315Z" fill="#FDE47F"/>
<path fill-rule="evenodd" clip-rule="evenodd" d="M131.068 142.545C114.519 165.23 95.5622 195.082 87.6021 234.336C79.5232 274.059 86.1623 316.21 120.364 318.687C153.292 321.09 169.235 284.175 162.306 243.028C157.476 212.068 135.618 167.629 131.068 142.545Z" fill="#FDE57F"/>
<path fill-rule="evenodd" clip-rule="evenodd" d="M130.82 143.491C114.613 165.919 95.9987 195.555 88.1288 234.514C80.1415 273.938 86.5797 315.735 120.237 318.184C152.636 320.559 168.273 283.941 161.422 243.109C156.647 212.349 135.163 168.29 130.82 143.492V143.491Z" fill="#FDE580"/>
<path fill-rule="evenodd" clip-rule="evenodd" d="M130.573 144.45C114.709 166.621 96.4354 196.04 88.6558 234.707C80.7601 273.831 86.9972 315.271 120.112 317.693C151.981 320.041 167.312 283.719 160.54 243.201C155.82 212.641 134.711 168.964 130.573 144.45Z" fill="#FDE581"/>
<path fill-rule="evenodd" clip-rule="evenodd" d="M130.311 145.411C114.791 167.322 96.8576 196.527 89.1682 234.899C81.3646 273.725 87.4005 314.809 119.971 317.203C151.311 319.524 166.334 283.498 159.642 243.296C154.977 212.935 134.242 169.639 130.311 145.411Z" fill="#FDE581"/>
<path fill-rule="evenodd" clip-rule="evenodd" d="M130.063 146.356C114.885 168.01 97.294 196.999 89.6963 235.076C81.9843 273.603 87.8191 314.331 119.845 316.696C150.657 318.989 165.373 283.259 158.758 243.373C154.148 213.211 133.786 170.299 130.063 146.356Z" fill="#FDE682"/>
<path fill-rule="evenodd" clip-rule="evenodd" d="M129.801 147.316C114.967 168.712 97.7162 197.485 90.2087 235.269C82.5886 273.498 88.2224 313.87 119.706 316.207C149.988 318.473 164.398 283.039 157.862 243.469C153.307 213.506 133.319 170.974 129.801 147.316Z" fill="#FDE683"/>
<path fill-rule="evenodd" clip-rule="evenodd" d="M129.554 148.276C115.063 169.415 98.1528 197.972 90.7356 235.462C83.2073 273.39 88.6401 313.408 119.579 315.717C149.333 317.956 163.435 282.819 156.978 243.563C152.478 213.802 132.865 171.649 129.554 148.276Z" fill="#FDE683"/>
<path fill-rule="evenodd" clip-rule="evenodd" d="M129.292 149.237C115.143 170.118 98.575 198.458 91.248 235.655C83.8116 273.284 89.0433 312.947 119.44 315.228C148.663 317.439 162.46 282.596 156.082 243.657C151.636 214.095 132.395 172.325 129.292 149.237Z" fill="#FDE684"/>
<path fill-rule="evenodd" clip-rule="evenodd" d="M129.044 150.211C115.239 170.834 99.0115 198.96 91.7748 235.862C84.4301 273.192 89.4608 312.5 119.313 314.753C148.008 316.937 161.498 282.39 155.197 243.765C150.806 214.402 131.941 173.014 129.043 150.211H129.044Z" fill="#FDE685"/>
<path fill-rule="evenodd" clip-rule="evenodd" d="M128.782 151.17C115.32 171.536 99.4336 199.445 92.2872 236.055C85.0344 273.086 89.864 312.038 119.173 314.262C147.338 316.418 160.521 282.169 154.3 243.859C149.964 214.695 131.473 173.688 128.782 151.17Z" fill="#FDE785"/>
<path fill-rule="evenodd" clip-rule="evenodd" d="M128.52 152.146C115.401 172.253 99.8557 199.948 92.7994 236.262C85.6384 272.994 90.2669 311.59 119.032 313.787C146.669 315.916 159.544 281.963 153.402 243.968C149.121 215.004 131.003 174.378 128.52 152.146Z" fill="#FDE786"/>
<path fill-rule="evenodd" clip-rule="evenodd" d="M128.258 153.105C115.482 172.955 100.278 200.433 93.312 236.455C86.2428 272.888 90.6703 311.128 118.892 313.296C145.999 315.398 158.569 281.739 152.506 244.061C148.28 215.296 130.536 175.053 128.258 153.105Z" fill="#FDE787"/>
<path fill-rule="evenodd" clip-rule="evenodd" d="M127.996 154.08C115.563 173.672 100.7 200.934 93.8242 236.662C86.8468 272.796 91.073 310.681 118.751 312.821C145.33 314.895 157.591 281.533 151.608 244.169C147.437 215.605 130.068 175.743 127.996 154.08Z" fill="#FDE787"/>
<path fill-rule="evenodd" clip-rule="evenodd" d="M127.734 155.055C115.644 174.389 101.122 201.436 94.3381 236.869C87.4525 272.703 91.4777 310.233 118.611 312.343C144.66 314.391 156.616 281.325 150.709 244.277C146.593 215.911 129.599 176.431 127.734 155.053V155.055Z" fill="#FDE788"/>
<path fill-rule="evenodd" clip-rule="evenodd" d="M127.458 156.015C115.711 175.091 101.53 201.922 94.8359 237.062C88.0421 272.596 91.8663 309.772 118.457 311.855C143.978 313.875 155.626 281.106 149.799 244.373C145.737 216.207 129.116 177.109 127.458 156.016V156.015Z" fill="#FDE889"/>
<path fill-rule="evenodd" clip-rule="evenodd" d="M127.196 157.004C115.792 175.823 101.952 202.438 95.3481 237.283C88.6461 272.52 92.2689 309.339 118.316 311.394C143.307 313.387 154.648 280.913 148.9 244.495C144.894 216.528 128.647 177.811 127.196 157.004Z" fill="#FDE889"/>
<path fill-rule="evenodd" clip-rule="evenodd" d="M126.934 157.978C115.873 176.538 102.374 202.938 95.8605 237.491C89.2503 272.428 92.6722 308.89 118.176 310.918C142.637 312.883 153.673 280.705 148.002 244.604C144.051 216.836 128.178 178.5 126.934 157.978Z" fill="#FDE88A"/>
<path fill-rule="evenodd" clip-rule="evenodd" d="M126.657 158.952C115.939 177.255 102.781 203.44 96.3583 237.697C89.8399 272.336 93.0606 308.442 118.021 310.442C141.953 312.38 152.682 280.499 147.09 244.711C143.193 217.145 127.695 179.19 126.657 158.952Z" fill="#FDE88A"/>
<path fill-rule="evenodd" clip-rule="evenodd" d="M126.395 159.927C116.02 177.973 103.203 203.941 96.8706 237.906C90.4441 272.245 93.4637 307.996 117.881 309.967C141.285 311.878 151.705 280.291 146.193 244.821C142.351 217.453 127.226 179.881 126.395 159.927Z" fill="#FDE88B"/>
<path fill-rule="evenodd" clip-rule="evenodd" d="M126.119 160.917C116.087 178.704 103.611 204.457 97.3684 238.127C91.0337 272.166 93.8522 307.562 117.725 309.505C140.6 311.389 150.714 280.099 145.28 244.943C141.494 217.775 126.745 180.583 126.119 160.917Z" fill="#FDE98C"/>
<path fill-rule="evenodd" clip-rule="evenodd" d="M125.842 161.891C116.153 179.421 104.019 204.957 97.8662 238.333C91.6233 272.073 94.2409 307.114 117.571 309.028C139.916 310.884 149.724 279.891 144.369 245.05C140.637 218.081 126.26 181.273 125.842 161.89V161.891Z" fill="#FDE98C"/>
<path fill-rule="evenodd" clip-rule="evenodd" d="M125.566 162.88C116.219 180.151 104.426 205.473 98.3652 238.555C92.2141 271.997 94.6304 306.682 117.416 308.568C139.233 310.397 148.733 279.7 143.458 245.173C139.781 218.404 125.778 181.976 125.567 162.88H125.566Z" fill="#FDE98D"/>
<path fill-rule="evenodd" clip-rule="evenodd" d="M125.289 163.869C116.286 180.883 104.834 205.988 98.8631 238.778C92.8037 271.92 95.0188 306.25 117.261 308.107C138.547 309.909 147.742 279.508 142.544 245.297C138.922 218.728 125.293 182.682 125.289 163.869Z" fill="#FDE98E"/>
<path fill-rule="evenodd" clip-rule="evenodd" d="M125.012 164.858C116.352 181.614 105.241 206.503 99.3607 238.999C93.3932 271.842 95.4073 305.816 117.106 307.646C137.864 309.42 146.752 279.314 141.633 245.419C138.065 219.05 124.81 183.384 125.012 164.858Z" fill="#FDE98E"/>
<path fill-rule="evenodd" clip-rule="evenodd" d="M124.736 165.848C116.419 182.347 105.649 207.02 99.8586 239.221C93.9829 271.765 95.7958 305.384 116.952 307.186C137.18 308.933 145.761 279.124 140.722 245.544C137.209 219.374 124.327 184.091 124.736 165.848Z" fill="#FDEA8F"/>
<path fill-rule="evenodd" clip-rule="evenodd" d="M124.46 166.837C116.485 183.077 106.056 207.535 100.357 239.443C94.5727 271.688 96.1849 304.95 116.796 306.725C136.497 308.445 144.77 278.931 139.808 245.666C136.35 219.695 123.845 184.793 124.46 166.837Z" fill="#FEEA8F"/>
<path fill-rule="evenodd" clip-rule="evenodd" d="M124.183 167.84C116.551 183.822 106.464 208.065 100.854 239.678C95.1619 271.623 96.573 304.53 116.64 306.276C135.811 307.968 143.778 278.75 138.895 245.802C135.492 220.03 123.359 185.511 124.181 167.838L124.183 167.84Z" fill="#FEEA90"/>
<path fill-rule="evenodd" clip-rule="evenodd" d="M123.892 168.829C116.604 184.554 106.857 208.581 101.338 239.901C95.7374 271.548 96.9473 304.099 116.472 305.817C135.114 307.482 142.773 278.56 137.97 245.928C134.622 220.357 122.863 186.217 123.892 168.831L123.892 168.829Z" fill="#FEEA91"/>
<path fill-rule="evenodd" clip-rule="evenodd" d="M123.601 169.833C116.655 185.301 107.25 209.112 101.821 240.137C96.3124 271.484 97.3212 303.682 116.302 305.37C134.414 307.008 141.767 278.383 137.043 246.064C133.75 220.693 122.366 186.936 123.601 169.833Z" fill="#FEEA91"/>
<path fill-rule="evenodd" clip-rule="evenodd" d="M123.325 170.836C116.722 186.045 107.658 209.641 102.32 240.372C96.9037 271.421 97.7115 303.263 116.149 304.922C133.733 306.533 140.779 278.204 136.133 246.201C132.894 221.028 121.884 187.652 123.326 170.835L123.325 170.836Z" fill="#FEEB92"/>
<path fill-rule="evenodd" clip-rule="evenodd" d="M123.034 171.84C116.774 186.791 108.051 210.17 102.804 240.609C97.4787 271.358 98.0852 302.843 115.979 304.476C133.033 306.06 139.772 278.025 135.205 246.338C132.022 221.365 121.385 188.372 123.034 171.84Z" fill="#FEEB92"/>
<path fill-rule="evenodd" clip-rule="evenodd" d="M122.742 172.844C116.826 187.537 108.442 210.701 103.286 240.846C98.0532 271.296 98.4587 302.426 115.808 304.032C132.334 305.588 138.766 277.85 134.277 246.478C131.149 221.704 120.886 189.092 122.742 172.845L122.742 172.844Z" fill="#FEEB93"/>
<path fill-rule="evenodd" clip-rule="evenodd" d="M122.451 173.847C116.877 188.283 108.836 211.23 103.77 241.082C98.6283 271.233 98.8328 302.007 115.639 303.584C131.635 305.112 137.761 277.671 133.351 246.614C130.278 222.041 120.389 189.809 122.451 173.847Z" fill="#FEEB94"/>
<path fill-rule="evenodd" clip-rule="evenodd" d="M122.16 174.851C116.929 189.029 109.228 211.761 104.253 241.318C99.2034 271.169 99.2066 301.588 115.469 303.137C130.936 304.639 136.755 277.493 132.425 246.752C129.406 222.378 119.891 190.528 122.16 174.851Z" fill="#FEEB94"/>
<path fill-rule="evenodd" clip-rule="evenodd" d="M121.869 175.869C116.981 189.79 109.622 212.306 104.736 241.57C99.7785 271.122 99.5807 301.186 115.3 302.706C130.238 304.18 135.75 277.33 131.497 246.904C128.533 222.729 119.394 191.261 121.869 175.869Z" fill="#FEEC95"/>
<path fill-rule="evenodd" clip-rule="evenodd" d="M121.563 176.873C117.019 190.535 110 212.836 105.205 241.805C100.339 271.059 99.94 300.766 115.116 302.259C129.525 303.706 134.73 277.152 130.556 247.041C127.647 223.067 118.881 191.979 121.563 176.873Z" fill="#FEEC95"/>
<path fill-rule="evenodd" clip-rule="evenodd" d="M121.272 177.891C117.071 191.296 110.393 213.38 105.688 242.057C100.914 271.011 100.314 300.363 114.946 301.827C128.826 303.246 133.724 276.989 129.629 247.193C126.776 223.418 118.383 192.713 121.272 177.891Z" fill="#FEEC96"/>
<path fill-rule="evenodd" clip-rule="evenodd" d="M120.966 178.909C117.108 192.056 110.771 213.926 106.158 242.307C101.476 270.962 100.675 299.96 114.763 301.395C128.114 302.788 132.705 276.826 128.69 247.346C125.891 223.77 117.871 193.446 120.966 178.909Z" fill="#FEEC96"/>
<path fill-rule="evenodd" clip-rule="evenodd" d="M120.661 179.927C117.145 192.816 111.15 214.47 106.626 242.557C102.036 270.913 101.034 299.555 114.579 300.963C127.4 302.328 131.685 276.662 127.747 247.496C125.003 224.12 117.359 194.179 120.661 179.927Z" fill="#FEEC97"/>
<path fill-rule="evenodd" clip-rule="evenodd" d="M120.37 180.96C117.197 193.591 111.543 215.028 107.11 242.823C102.611 270.88 101.408 299.166 114.409 300.545C126.702 301.883 130.679 276.513 126.821 247.664C124.132 224.487 116.861 194.926 120.37 180.96Z" fill="#FEEC98"/>
<path fill-rule="evenodd" clip-rule="evenodd" d="M120.064 181.978C117.235 194.352 111.921 215.573 107.579 243.074C103.172 270.831 101.767 298.763 114.225 300.114C125.988 301.425 129.659 276.351 125.88 247.816C123.245 224.839 116.349 195.659 120.064 181.978Z" fill="#FEED98"/>
<path fill-rule="evenodd" clip-rule="evenodd" d="M119.758 183.011C117.272 195.127 112.299 216.132 108.048 243.339C103.733 270.798 102.127 298.372 114.042 299.696C125.275 300.979 128.64 276.202 124.938 247.982C122.359 225.204 115.837 196.407 119.758 183.011Z" fill="#FEED99"/>
<path fill-rule="evenodd" clip-rule="evenodd" d="M119.438 184.044C117.294 195.902 112.663 216.692 108.501 243.604C104.278 270.764 102.472 297.983 113.842 299.279C124.547 300.534 127.605 276.053 123.982 248.149C121.458 225.571 115.309 197.156 119.438 184.044Z" fill="#FEED99"/>
<path fill-rule="evenodd" clip-rule="evenodd" d="M119.132 185.077C117.332 196.677 113.041 217.251 108.971 243.871C104.839 270.731 102.832 297.595 113.659 298.862C123.834 300.09 126.585 275.905 123.041 248.316C120.572 225.938 114.797 197.903 119.132 185.077Z" fill="#FEED9A"/>
<path fill-rule="evenodd" clip-rule="evenodd" d="M118.812 186.109C117.354 197.452 113.405 217.809 109.425 244.135C105.385 270.697 103.176 297.204 113.46 298.444C123.106 299.645 125.55 275.756 122.085 248.483C119.67 226.304 114.27 198.652 118.812 186.109Z" fill="#FEED9A"/>
<path fill-rule="evenodd" clip-rule="evenodd" d="M118.506 187.141C117.392 198.226 113.783 218.369 109.893 244.401C105.946 270.663 103.536 296.815 113.276 298.025C122.393 299.199 124.53 275.605 121.144 248.648C118.784 226.669 113.758 199.397 118.506 187.141Z" fill="#FEEE9B"/>
<path fill-rule="evenodd" clip-rule="evenodd" d="M118.186 188.189C117.415 199.016 114.148 218.943 110.348 244.681C106.492 270.643 103.882 296.441 113.078 297.624C121.666 298.77 123.496 275.473 120.189 248.831C117.884 227.051 113.231 200.162 118.186 188.189Z" fill="#FEEE9B"/>
<path fill-rule="evenodd" clip-rule="evenodd" d="M117.866 189.236C117.438 199.805 114.512 219.517 110.803 244.96C107.039 270.624 104.227 296.065 112.879 297.219C120.939 298.338 122.462 275.336 119.233 249.009C116.983 227.43 112.705 200.92 117.867 189.235L117.866 189.236Z" fill="#FEEE9C"/>
<path fill-rule="evenodd" clip-rule="evenodd" d="M117.546 190.284C117.46 200.595 114.875 220.09 111.257 245.241C107.584 270.605 104.571 295.691 112.68 296.817C120.211 297.909 121.427 275.204 118.277 249.193C116.082 227.812 112.178 201.686 117.546 190.284Z" fill="#FEEE9C"/>
<path fill-rule="evenodd" clip-rule="evenodd" d="M117.226 191.331C117.483 201.385 115.239 220.665 111.711 245.522C108.13 270.586 104.916 295.318 112.481 296.416C119.483 297.481 120.392 275.071 117.321 249.375C115.181 228.194 111.65 202.448 117.226 191.333L117.226 191.331Z" fill="#FEEE9D"/>
<path fill-rule="evenodd" clip-rule="evenodd" d="M116.891 192.378C117.491 202.174 115.589 221.238 112.151 245.8C108.662 270.567 105.247 294.942 112.269 296.011C118.741 297.049 119.343 274.935 116.351 249.555C114.266 228.573 111.109 203.21 116.891 192.378Z" fill="#FEEE9E"/>
<path fill-rule="evenodd" clip-rule="evenodd" d="M116.571 193.44C117.514 202.978 115.952 221.826 112.605 246.094C109.208 270.561 105.592 294.581 112.07 295.623C118.013 296.633 118.309 274.815 115.395 249.749C113.364 228.968 110.582 203.985 116.571 193.44Z" fill="#FEEF9E"/>
<path fill-rule="evenodd" clip-rule="evenodd" d="M116.236 194.487C117.522 203.768 116.301 222.4 113.044 246.375C109.739 270.543 105.922 294.207 111.857 295.221C117.27 296.203 117.259 274.682 114.425 249.932C112.449 229.35 110.041 204.749 116.236 194.487Z" fill="#FEEF9F"/>
<path fill-rule="evenodd" clip-rule="evenodd" d="M115.901 195.549C117.531 204.572 116.651 222.988 113.485 246.669C110.271 270.538 106.253 293.846 111.644 294.832C116.529 295.787 116.211 274.562 113.455 250.127C111.534 229.744 109.5 205.525 115.901 195.549Z" fill="#FEEF9F"/>
<path fill-rule="evenodd" clip-rule="evenodd" d="M115.566 196.625C117.539 205.39 117 223.591 113.924 246.979C110.802 270.549 106.583 293.502 111.43 294.459C115.786 295.387 115.161 274.457 112.484 250.338C110.618 230.154 108.958 206.317 115.566 196.625Z" fill="#FEEFA0"/>
<path fill-rule="evenodd" clip-rule="evenodd" d="M115.232 197.687C117.548 206.194 117.349 224.179 114.364 247.273C111.335 270.543 106.914 293.14 111.218 294.07C115.044 294.971 114.113 274.337 111.514 250.532C109.703 230.548 108.417 207.092 115.232 197.687Z" fill="#FEEFA0"/>
<path fill-rule="evenodd" clip-rule="evenodd" d="M114.897 198.749C117.556 206.998 117.699 224.768 114.804 247.568C111.866 270.54 107.244 292.781 111.005 293.683C114.302 294.557 113.064 274.219 110.544 250.73C108.788 230.946 107.876 207.872 114.897 198.751L114.897 198.749Z" fill="#FEEFA1"/>
<path fill-rule="evenodd" clip-rule="evenodd" d="M114.547 199.825C117.549 207.816 118.033 225.37 115.229 247.876C112.383 270.548 107.56 292.435 110.777 293.308C113.545 294.154 112 274.112 109.559 250.938C107.857 231.354 107.319 208.66 114.547 199.825Z" fill="#FEF0A1"/>
<path fill-rule="evenodd" clip-rule="evenodd" d="M114.198 200.902C117.543 208.636 118.368 225.974 115.654 248.186C112.9 270.559 107.876 292.09 110.549 292.934C112.788 293.753 110.936 274.007 108.574 251.149C106.927 231.765 106.763 209.453 114.198 200.902Z" fill="#FEF0A2"/>
<path fill-rule="evenodd" clip-rule="evenodd" d="M113.849 201.978C117.536 209.454 118.703 226.576 116.079 248.495C113.417 270.569 108.191 291.744 110.321 292.56C112.031 293.352 109.872 273.903 107.589 251.359C105.997 232.173 106.207 210.243 113.849 201.977V201.978Z" fill="#FEF0A2"/>
<path fill-rule="evenodd" clip-rule="evenodd" d="M113.5 203.069C117.53 210.288 119.038 227.194 116.505 248.818C113.934 270.592 108.508 291.413 110.094 292.201C111.275 292.965 108.809 273.811 106.605 251.584C105.068 232.598 105.652 211.05 113.5 203.069Z" fill="#FEF0A3"/>
<path fill-rule="evenodd" clip-rule="evenodd" d="M113.15 204.16C117.524 211.12 119.372 227.811 116.93 249.142C114.451 270.617 108.824 291.082 109.866 291.841C110.518 292.578 107.745 273.721 105.619 251.808C104.138 233.021 105.096 211.854 113.15 204.158V204.16Z" fill="#FEF0A3"/>
<path fill-rule="evenodd" clip-rule="evenodd" d="M112.801 205.25C117.518 211.953 119.707 228.427 117.355 249.464C114.968 270.641 109.14 290.75 109.638 291.482C109.761 292.192 106.682 273.63 104.634 252.033C103.208 233.447 104.54 212.661 112.801 205.25Z" fill="#FEF0A4"/>
<path fill-rule="evenodd" clip-rule="evenodd" d="M112.437 206.342C117.496 212.786 120.027 229.046 117.765 249.789C115.47 270.666 109.441 290.419 109.396 291.123C108.99 291.805 105.604 273.54 103.635 252.259C102.263 233.872 103.969 213.468 112.437 206.342Z" fill="#FEF1A4"/>
<path fill-rule="evenodd" clip-rule="evenodd" d="M112.073 207.447C117.475 213.634 120.347 229.677 118.176 250.127C115.972 270.704 109.742 290.102 109.154 290.778C108.218 291.434 104.525 273.463 102.635 252.498C101.318 234.31 103.398 214.288 112.073 207.447Z" fill="#FEF1A5"/>
<path fill-rule="evenodd" clip-rule="evenodd" d="M111.71 208.539C117.455 214.468 120.668 230.296 118.587 250.451C116.475 270.731 110.044 289.772 108.912 290.419C107.447 291.047 103.448 273.373 101.637 252.723C100.374 234.735 102.828 215.094 111.71 208.539Z" fill="#FEF1A5"/>
<path fill-rule="evenodd" clip-rule="evenodd" d="M111.346 209.644C117.434 215.315 120.988 230.927 118.998 250.788C116.978 270.768 110.345 289.454 108.67 290.074C106.676 290.675 102.369 273.297 100.637 252.961C99.4295 235.172 102.258 215.914 111.346 209.644Z" fill="#FEF1A6"/>
<path fill-rule="evenodd" clip-rule="evenodd" d="M110.967 210.763C117.399 216.176 121.293 231.573 119.393 251.141C117.465 270.821 110.632 289.153 108.413 289.745C105.89 290.318 101.276 273.237 99.6229 253.217C98.4703 235.628 101.672 216.75 110.967 210.764V210.763Z" fill="#FEF1A6"/>
<path fill-rule="evenodd" clip-rule="evenodd" d="M110.603 211.868C117.377 217.024 121.613 232.204 119.804 251.478C117.968 270.86 110.933 288.835 108.17 289.398C105.118 289.944 100.198 273.158 98.623 253.454C97.5253 236.064 101.102 217.569 110.603 211.868Z" fill="#FEF1A7"/>
<path fill-rule="evenodd" clip-rule="evenodd" d="M110.225 212.989C117.342 217.887 121.919 232.852 120.2 251.831C118.456 270.914 111.22 288.534 107.914 289.069C104.332 289.588 99.1055 273.098 97.6093 253.709C96.5665 236.519 100.517 218.404 110.225 212.989Z" fill="#FEF2A7"/>
<path fill-rule="evenodd" clip-rule="evenodd" d="M109.846 214.109C117.307 218.749 122.225 233.498 120.596 252.184C118.944 270.967 111.507 288.232 107.657 288.738C103.547 289.23 98.0131 273.037 96.5956 253.962C95.6077 236.971 99.9319 219.24 109.846 214.109Z" fill="#FEF2A8"/>
<path fill-rule="evenodd" clip-rule="evenodd" d="M109.453 215.243C117.257 219.625 122.516 234.159 120.978 252.551C119.417 271.035 111.779 287.944 107.386 288.423C102.747 288.887 96.9056 272.99 95.567 254.231C94.6341 237.441 99.332 220.089 109.453 215.243Z" fill="#FEF2A8"/>
<path fill-rule="evenodd" clip-rule="evenodd" d="M109.075 216.378C117.221 220.502 122.821 234.82 121.374 252.919C119.905 271.103 112.066 287.657 107.129 288.107C101.96 288.544 95.8126 272.942 94.5528 254.498C93.6748 237.908 98.7469 220.938 109.075 216.378Z" fill="#FEF2A9"/>
<path fill-rule="evenodd" clip-rule="evenodd" d="M108.682 217.512C117.171 221.379 123.112 235.48 121.755 253.286C120.378 271.171 112.338 287.37 106.857 287.792C101.159 288.201 94.705 272.896 93.5238 254.768C92.7007 238.376 98.1474 221.787 108.682 217.512Z" fill="#FEF2A9"/>
<path fill-rule="evenodd" clip-rule="evenodd" d="M108.289 218.648C117.121 222.257 123.403 236.143 122.137 253.654C120.852 271.241 112.61 287.084 106.586 287.477C100.36 287.859 93.5985 272.85 92.4962 255.036C91.7279 238.844 97.5483 222.638 108.29 218.646L108.289 218.648Z" fill="#FEF2AA"/>
<path fill-rule="evenodd" clip-rule="evenodd" d="M107.896 219.796C117.071 223.147 123.694 236.817 122.518 254.035C121.325 271.322 112.882 286.808 106.314 287.175C99.5583 287.53 92.4903 272.816 91.4665 255.319C90.7528 239.326 96.9487 223.501 107.896 219.796Z" fill="#FEF3AA"/>
<path fill-rule="evenodd" clip-rule="evenodd" d="M107.488 220.946C117.007 224.04 123.97 237.494 122.885 254.418C121.783 271.406 113.139 286.538 106.029 286.876C98.7435 287.204 91.3688 272.787 90.4242 255.604C89.7655 239.81 96.3341 224.367 107.488 220.946Z" fill="#FEF3AB"/>
<path fill-rule="evenodd" clip-rule="evenodd" d="M107.081 222.095C116.942 224.93 124.247 238.169 123.253 254.799C122.243 271.488 113.398 286.264 105.743 286.573C97.9289 286.874 90.2479 272.752 89.3819 255.885C88.7781 240.293 95.7191 225.229 107.081 222.095Z" fill="#FEF3AB"/>
<path fill-rule="evenodd" clip-rule="evenodd" d="M106.673 223.257C116.878 225.835 124.524 238.859 123.62 255.195C122.702 271.585 113.656 286.005 105.458 286.287C97.1148 286.56 89.1259 272.735 88.3384 256.184C87.7896 240.79 95.1059 226.108 106.673 223.257Z" fill="#FEF3AC"/>
<path fill-rule="evenodd" clip-rule="evenodd" d="M106.266 224.421C116.813 226.742 124.8 239.549 123.987 255.591C123.16 271.681 113.914 285.746 105.171 286C96.2992 286.245 88.0038 272.716 87.2949 256.48C86.801 241.285 94.4915 226.986 106.266 224.421Z" fill="#FEF3AC"/>
<path fill-rule="evenodd" clip-rule="evenodd" d="M105.844 225.6C116.734 227.662 125.062 240.253 124.339 256.002C123.604 271.794 114.156 285.504 104.87 285.729C95.4687 285.947 86.867 272.714 86.2368 256.794C85.7978 241.799 93.8621 227.88 105.844 225.6Z" fill="#FEF3AD"/>
<path fill-rule="evenodd" clip-rule="evenodd" d="M105.421 226.764C116.655 228.569 125.324 240.944 124.691 256.399C124.048 271.891 114.399 285.245 104.57 285.442C94.6395 285.632 85.73 272.695 85.1798 257.09C84.7958 242.294 93.2343 228.758 105.421 226.764Z" fill="#FEF3AD"/>
<path fill-rule="evenodd" clip-rule="evenodd" d="M105 227.956C116.576 229.503 125.586 241.663 125.043 256.823C124.492 272.016 114.642 285.015 104.269 285.184C93.8093 285.348 84.5935 272.706 84.1205 257.416C83.7914 242.821 92.6052 229.666 105 227.956Z" fill="#FEF4AE"/>
<path fill-rule="evenodd" clip-rule="evenodd" d="M104.563 229.134C116.482 230.423 125.834 242.367 125.381 257.234C124.922 272.129 114.871 284.772 103.955 284.911C92.9657 285.048 83.4436 272.702 83.0492 257.727C82.775 243.332 91.9615 230.558 104.563 229.134Z" fill="#FEF4AE"/>
<path fill-rule="evenodd" clip-rule="evenodd" d="M104.141 230.328C116.403 231.359 126.096 243.087 125.735 257.66C125.367 272.255 115.115 284.543 103.655 284.655C92.1367 284.764 82.3069 272.715 81.9925 258.056C81.7728 243.86 91.3334 231.468 104.141 230.328Z" fill="#FEF4AF"/>
<path fill-rule="evenodd" clip-rule="evenodd" d="M103.69 231.533C116.295 232.307 126.329 243.819 126.058 258.099C125.783 272.395 115.329 284.328 103.326 284.412C91.279 284.494 81.1426 272.741 80.9068 258.396C80.742 244.4 90.6769 232.389 103.691 231.535L103.69 231.533Z" fill="#FEF4AF"/>
<path fill-rule="evenodd" clip-rule="evenodd" d="M103.253 232.741C116.201 233.257 126.576 244.554 126.395 258.539C126.212 272.535 115.557 284.111 103.01 284.168C90.4337 284.223 79.9911 272.765 79.8339 258.737C79.724 244.94 90.0313 233.311 103.253 232.741Z" fill="#FEF4B0"/>
<path fill-rule="evenodd" clip-rule="evenodd" d="M102.802 233.949C116.093 234.207 126.809 245.288 126.718 258.98C126.627 272.677 115.771 283.898 102.681 283.927C89.576 283.954 78.8254 272.793 78.7468 259.079C78.6919 245.481 89.3747 234.235 102.802 233.95V233.949Z" fill="#FEF4B0"/>
<path d="M102.351 283.696C115.987 283.696 127.042 272.833 127.042 259.433C127.042 246.033 115.987 235.17 102.351 235.17C88.714 235.17 77.6594 246.033 77.6594 259.433C77.6594 272.833 88.714 283.696 102.351 283.696Z" fill="#FFF5B1"/>
</svg>
