<svg width="400" height="400" viewBox="0 0 400 400" fill="none" xmlns="http://www.w3.org/2000/svg">
<path d="M264.536 86.6004C214.344 75.7043 103.833 76.5551 62.7027 119.355C6.55159 185.317 24.6767 337.182 59.9714 367.933C95.2662 398.684 139.57 276.275 174.681 280.127C209.794 283.982 259.937 225.286 259.937 225.286C259.937 225.286 312.428 211.579 328.028 188.982C343.629 166.39 376.442 130.821 396.932 117.408C417.42 104.001 330.998 61.319 264.535 86.5981L264.536 86.6004Z" fill="#E53C43"/>
<path d="M345.633 138.403C333.373 146.227 286.816 173.589 265.088 179.203C244.62 184.491 246.294 171.414 226.19 187.754C145.104 253.653 156.437 206.857 107.524 236.958C80.1668 253.792 46.5557 285.817 48.7252 319.418C50.8979 353.018 63.4941 366.52 63.4941 366.52L63.4917 366.512C57.7456 359.522 56.0964 344.8 51.8807 320.806C45.0401 281.875 119.142 225.747 144.48 229.787C180.782 235.573 241.814 182.437 241.814 182.437C242.347 182.701 242.883 182.947 243.42 183.178L243.875 183.369C244.287 183.542 244.703 183.703 245.117 183.857L245.545 184.017C246.635 184.402 247.731 184.73 248.84 184.996L249.306 185.104C249.728 185.2 250.151 185.286 250.572 185.364L251.027 185.448C251.585 185.543 252.142 185.629 252.701 185.693L252.826 185.707C253.339 185.765 253.855 185.814 254.372 185.849L254.911 185.882C255.327 185.904 255.743 185.921 256.159 185.929L256.645 185.939C257.209 185.945 257.774 185.939 258.34 185.92L258.604 185.906C259.102 185.886 259.6 185.853 260.101 185.814L260.589 185.771C261.044 185.729 261.501 185.68 261.96 185.623L262.38 185.571C262.962 185.493 263.548 185.407 264.137 185.305L264.46 185.246C264.948 185.157 265.438 185.063 265.929 184.961L266.464 184.846C266.923 184.746 267.384 184.638 267.845 184.523L268.3 184.41C268.894 184.258 269.493 184.096 270.091 183.922L270.43 183.82C270.923 183.674 271.42 183.521 271.913 183.363L272.512 183.166C272.946 183.022 273.383 182.873 273.817 182.719L274.381 182.52C274.99 182.301 275.598 182.073 276.209 181.834L276.502 181.717C277.024 181.512 277.548 181.299 278.073 181.08L278.645 180.839C279.168 180.618 279.692 180.388 280.217 180.154L280.508 180.027C281.147 179.74 281.789 179.445 282.434 179.136L282.891 178.917C283.373 178.685 283.858 178.45 284.343 178.208L284.998 177.88C285.531 177.612 286.062 177.339 286.597 177.06L286.865 176.923C287.529 176.575 288.199 176.218 288.867 175.853L289.232 175.653C289.802 175.342 290.371 175.026 290.943 174.703L291.337 174.482C291.921 174.15 292.511 173.814 293.098 173.472L293.417 173.287C294.106 172.888 294.795 172.478 295.487 172.064L295.732 171.916C296.313 171.567 296.894 171.215 297.478 170.859L298.056 170.504L299.886 169.367L300.067 169.253C300.792 168.799 301.519 168.335 302.252 167.867L302.399 167.773L304.463 166.441L304.701 166.285L306.853 164.871L306.884 164.851L307.056 164.738C319.135 156.744 331.971 147.405 345.631 138.401H345.638V138.403H345.633Z" fill="#FC6F76"/>
<path d="M399.462 114.738L399.309 114.892C399.309 114.892 396.292 111.082 390.966 113.318C327.837 139.817 279.607 201.208 241.815 182.438C241.815 182.438 180.782 235.575 144.481 229.787C119.144 225.748 45.0409 281.872 51.8815 320.806C58.7198 359.732 58.8019 374.263 80.5848 370.951C111.503 357.342 146.132 276.998 174.684 280.133C209.797 283.986 259.94 225.292 259.94 225.292C259.94 225.292 312.431 211.585 328.032 188.986C343.635 166.394 376.445 130.825 396.935 117.412C398.148 116.619 398.974 115.719 399.464 114.74H399.462L399.462 114.738Z" fill="#D40000"/>
<path d="M269.53 84.8402C238.799 111.845 245.02 149.891 249.037 185.048L235.984 187.267C236.223 130.958 236.82 109.396 263.017 86.2785L269.53 84.8379V84.8402Z" fill="#ED4C54"/>
<path d="M395.602 104.663C394.659 104.132 335.617 71.0271 286.035 86.4232L259.355 95.8678L263.897 86.4662L264.534 86.6014C315.677 67.1481 378.626 87.9381 395.602 104.662V104.663Z" fill="#FF878E"/>
<path d="M261.972 86.0677L263.224 87.8591L257.798 91.2123C257.798 91.2123 101.759 67.2215 57.0386 136.67C15.5969 201.03 29.7876 289.627 32.0915 302.268C20.9641 243.448 25.7329 162.785 62.705 119.358C103.149 77.2708 210.678 75.7458 261.974 86.0677H261.972Z" fill="#FF878E"/>
<path d="M267.437 340.394L261.841 246.652C263.081 244.924 264.12 242.537 265.273 239.896C267.352 235.127 269.886 229.32 273.549 227.587C283.452 222.902 289.5 219.778 289.516 219.767C290.444 217.787 289.407 214.113 286.467 214.137C286.451 214.145 280.714 217.105 270.779 221.806C264.964 224.556 261.896 231.59 259.376 237.369C258.446 239.504 257.607 241.426 256.914 242.54C251.284 235.251 245.759 215.028 245.744 214.97C244.289 212.215 239.64 212.886 239.522 216.597C239.539 216.66 245.618 238.867 252.188 246.896C252.85 247.706 253.5 248.332 254.142 248.788L252.456 282.776C247.588 275.651 242.452 270.205 229.412 270.707C216.372 271.212 199.036 269.466 195.29 265.54C191.543 261.613 169.077 232.468 141.61 240.325C114.147 248.179 116.227 284.139 136.2 292.408C156.173 300.674 181.975 285.795 189.884 286.207C197.794 286.619 226.251 281.915 238.571 283.314C245.084 284.054 249.364 288.75 251.949 293.013L249.474 342.971L267.437 340.394Z" fill="#13A6AE"/>
</svg>
