<svg width="364" height="532" viewBox="0 0 364 532" fill="none" xmlns="http://www.w3.org/2000/svg">
<path d="M10.835 32V486.547C10.835 511.647 81.9358 532 182.053 532C282.184 532 353.271 511.647 353.271 486.547V32H10.835Z" fill="#E6E9ED"/>
<path d="M182.19 0C82.1234 0 1 14.328 1 32V95.999C1 113.671 82.1234 127.999 182.19 127.999C282.27 127.999 363.394 113.671 363.394 95.999V32C363.394 14.329 282.27 0 182.19 0Z" fill="#2EC0C8"/>
<path d="M363.394 32C363.394 49.671 282.27 64 182.19 64C82.1234 64 1 49.672 1 32C1 14.328 82.1234 0 182.19 0C282.27 0 363.394 14.329 363.394 32Z" fill="#13A6AE"/>
<path d="M39.1382 53.3349C39.1382 59.2259 43.4119 63.9989 48.679 63.9989C53.3453 63.9989 57.2149 60.2569 58.0526 55.3039C51.2772 54.1789 44.9909 52.9679 39.2777 51.6709C39.1945 52.2099 39.1382 52.7649 39.1382 53.3349Z" fill="#13A6AE"/>
<path d="M77.2898 59.3348C77.2898 65.2258 81.5644 69.9988 86.8315 69.9988C91.833 69.9988 95.9396 65.6788 96.3303 60.1868C89.7516 59.5618 83.4223 58.8588 77.3595 58.1008C77.3175 58.5068 77.2898 58.9138 77.2898 59.3348Z" fill="#13A6AE"/>
<path d="M115.441 62.6638C115.441 68.5618 119.703 73.3358 124.969 73.3358C130.18 73.3358 134.399 68.6718 134.496 62.8748C128.014 62.5628 121.658 62.1948 115.483 61.7578C115.456 62.0618 115.441 62.3588 115.441 62.6638Z" fill="#13A6AE"/>
<path d="M153.606 63.6008C153.592 63.7338 153.579 63.8668 153.579 63.9988C153.579 69.8898 157.853 74.6628 163.12 74.6628C168.387 74.6628 172.662 69.8898 172.662 63.9988C172.662 63.9828 172.662 63.9678 172.662 63.9518C166.208 63.8978 159.852 63.7728 153.606 63.6008Z" fill="#13A6AE"/>
<path d="M191.731 63.9528C191.731 63.9688 191.731 63.9838 191.731 63.9998C191.731 69.8908 196.006 74.6638 201.272 74.6638C206.539 74.6638 210.8 69.8908 210.8 63.9998C210.8 63.8668 210.785 63.7338 210.785 63.6018C204.541 63.7728 198.185 63.8978 191.731 63.9528Z" fill="#13A6AE"/>
<path d="M229.883 62.8738C229.995 68.6708 234.214 73.3348 239.41 73.3348C244.677 73.3348 248.952 68.5618 248.952 62.6628C248.952 62.3578 248.938 62.0608 248.91 61.7568C242.735 62.1948 236.379 62.5618 229.883 62.8738Z" fill="#13A6AE"/>
<path d="M268.063 60.1868C268.455 65.6788 272.548 69.9988 277.562 69.9988C282.829 69.9988 287.104 65.2258 287.104 59.3348C287.104 58.9128 287.076 58.5068 287.034 58.1008C280.971 58.8588 274.643 59.5618 268.063 60.1868Z" fill="#13A6AE"/>
<path d="M325.116 51.6709C319.389 52.9679 313.116 54.1789 306.34 55.3039C307.165 60.2569 311.049 63.9989 315.714 63.9989C320.981 63.9989 325.241 59.2259 325.241 53.3349C325.241 52.7649 325.199 52.2099 325.116 51.6709Z" fill="#13A6AE"/>
<path d="M291.273 379.383C288.384 375.037 283.506 371.481 277.403 369.271C273.714 367.667 269.709 366.444 265.515 365.643C268.546 357.918 264.247 351.765 258.203 347.171C249.267 340.439 239.974 339.46 239.974 339.46C243.184 335.225 244.155 330.341 242.669 325.665C241.143 320.574 236.566 316.201 230.067 313.635C223.924 311.111 216.355 309.869 208.588 308.848C204.863 308.379 189.15 306.848 182.631 300.571C177.38 295.481 177.222 286.321 175.795 283.576C174.369 280.831 169.098 281.989 163.451 284.624C156.853 287.742 143.181 297.578 137.91 307.469C134.427 313.552 133.546 320.207 135.374 326.63C131.134 327.113 126.992 327.968 123.069 329.182C122.752 329.182 122.435 329.32 122.098 329.417C116.154 331.128 103.413 339.073 102.284 351.282C101.868 355.6 102.66 359.918 104.602 364.029C100.263 364.815 96.0819 366.002 92.1983 367.574C87.6608 368.926 83.5196 370.857 80.0125 373.272C76.1487 376.596 73.335 380.445 71.7895 384.584C68.2 393.702 69.6126 403.424 75.7524 411.857C79.319 416.643 83.797 421.058 89.1073 424.989C106.049 437.115 135.295 441.695 158.458 444.303C186.574 447.531 216.018 446.399 242.332 438.785C281.802 427.445 292.304 409.208 293.849 404.062C297.277 392.681 293.076 381.962 291.273 379.383Z" fill="#885742"/>
</svg>
