<svg width="400" height="400" viewBox="0 0 400 400" fill="none" xmlns="http://www.w3.org/2000/svg">
<g clip-path="url(#clip0_1_8)">
<path d="M291.297 18.4376C189.798 -33.8198 33.8495 28.6791 64.2013 159.475L48.9855 177.883L22.1127 227.089L48.2598 247.877L47.173 282.825L57.6223 297.802C57.6223 297.802 45.1777 344.555 64.2013 351.183C99.6805 363.561 141.458 357.469 141.458 357.469L143.539 399.999H320.045C320.045 399.999 302.577 311.841 329.102 274.403C355.627 236.952 442.15 96.0968 291.297 18.4376Z" fill="#EAC6BB"/>
<g opacity="0.2">
<path d="M124.796 357.47C124.796 357.47 118.278 358.422 108.213 358.813C114.366 359.045 120.024 358.996 124.863 358.813L124.796 357.47Z" fill="white"/>
<path d="M291.297 18.4376C264.515 4.65623 233.961 -1.14225 204.024 0.188228C228.481 1.28667 252.809 7.20703 274.622 18.4376C425.486 96.0976 338.964 236.952 312.439 274.404C285.913 311.841 303.381 400 303.381 400H320.044C320.044 400 302.576 311.841 329.101 274.404C355.627 236.952 442.15 96.0968 291.297 18.4376Z" fill="white"/>
</g>
<path d="M266.186 340.518L277.685 335.744L260.864 324.49L269.665 315.677L249.804 311.71L254.577 300.198L234.704 304.129V291.677L217.858 302.92L213.092 291.409L201.825 308.242L193.018 299.429L189.044 319.29L177.546 314.529L181.476 334.389H169.026L180.256 351.235L168.751 356.008L185.578 367.275L176.771 376.076L196.631 380.043L191.864 391.555L211.731 387.624V400.074L228.576 388.845L233.349 400.343L244.616 383.523L253.418 392.324L257.385 372.462L268.896 377.223L264.965 357.362H277.416L266.186 340.518Z" fill="#13A6AE"/>
<path d="M223.218 370.877C237.025 370.877 248.218 359.684 248.218 345.877C248.218 332.071 237.025 320.878 223.218 320.878C209.411 320.878 198.219 332.071 198.219 345.877C198.219 359.684 209.411 370.877 223.218 370.877Z" fill="#2EC0C8"/>
</g>
<defs>
<clipPath id="clip0_1_8">
<rect width="400" height="400" fill="white"/>
</clipPath>
</defs>
</svg>
