<svg width="336" height="526" viewBox="0 0 336 526" fill="none" xmlns="http://www.w3.org/2000/svg">
<g clip-path="url(#clip0_1_387)">
<path d="M9 26V480.547C9 505.647 74.8195 526 167.5 526C260.194 526 326 505.647 326 480.547V26H9Z" fill="#E6E9ED"/>
<path d="M9 26V480.547C9 505.647 74.8195 526 167.5 526C260.194 526 326 505.647 326 480.547V26H9Z" fill="url(#paint0_linear_1_387)" fill-opacity="0.2"/>
<path d="M167.713 0C75.0895 0 0 11.864 0 26.4968V79.4897C0 94.1226 75.0895 105.987 167.713 105.987C260.35 105.987 335.439 94.1226 335.439 79.4897V26.4968C335.439 11.8648 260.35 0 167.713 0Z" fill="#2EC0C8"/>
<path d="M335.439 26.4969C335.439 41.1289 260.35 52.9937 167.713 52.9937C75.0895 52.9937 0 41.1297 0 26.4969C0 11.864 75.0895 0 167.713 0C260.35 0 335.439 11.8648 335.439 26.4969Z" fill="#13A6AE"/>
<path d="M35.3015 44.1627C35.3015 49.0406 39.2574 52.9928 44.1327 52.9928C48.4518 52.9928 52.0336 49.8943 52.8091 45.7931C46.5376 44.8616 40.7189 43.8589 35.4306 42.7849C35.3536 43.2312 35.3015 43.6908 35.3015 44.1627Z" fill="#13A6AE"/>
<path d="M70.6155 49.1309C70.6155 54.0088 74.5721 57.961 79.4474 57.961C84.0769 57.961 87.878 54.3839 88.2397 49.8364C82.1503 49.3189 76.2918 48.7368 70.68 48.1091C70.6411 48.4453 70.6155 48.7823 70.6155 49.1309Z" fill="#13A6AE"/>
<path d="M105.929 51.8874C105.929 56.7711 109.874 60.7241 114.748 60.7241C119.571 60.7241 123.477 56.8622 123.567 52.0621C117.567 51.8038 111.683 51.4991 105.967 51.1372C105.943 51.3889 105.929 51.6348 105.929 51.8874Z" fill="#13A6AE"/>
<path d="M141.256 52.6633C141.243 52.7735 141.23 52.8836 141.23 52.9929C141.23 57.8708 145.187 61.8229 150.062 61.8229C154.937 61.8229 158.894 57.8708 158.894 52.9929C158.894 52.9796 158.894 52.9672 158.894 52.954C152.92 52.9093 147.037 52.8058 141.256 52.6633Z" fill="#13A6AE"/>
<path d="M176.545 52.9547C176.545 52.968 176.545 52.9804 176.545 52.9936C176.545 57.8715 180.502 61.8237 185.376 61.8237C190.251 61.8237 194.195 57.8715 194.195 52.9936C194.195 52.8835 194.182 52.7734 194.182 52.6641C188.402 52.8057 182.518 52.9092 176.545 52.9547Z" fill="#13A6AE"/>
<path d="M211.859 52.0614C211.962 56.8614 215.868 60.7233 220.678 60.7233C225.553 60.7233 229.51 56.7712 229.51 51.8867C229.51 51.6341 229.496 51.3882 229.471 51.1365C223.755 51.4991 217.872 51.803 211.859 52.0614Z" fill="#13A6AE"/>
<path d="M247.199 49.8364C247.562 54.3839 251.35 57.961 255.992 57.961C260.867 57.961 264.823 54.0088 264.823 49.1309C264.823 48.7815 264.798 48.4453 264.759 48.1091C259.147 48.7368 253.289 49.3189 247.199 49.8364Z" fill="#13A6AE"/>
<path d="M300.009 42.7849C294.707 43.8589 288.901 44.8616 282.629 45.7931C283.392 49.8943 286.987 52.9928 291.306 52.9928C296.181 52.9928 300.125 49.0406 300.125 44.1627C300.125 43.6908 300.086 43.2312 300.009 42.7849Z" fill="#13A6AE"/>
</g>
<defs>
<linearGradient id="paint0_linear_1_387" x1="167.5" y1="26" x2="167.5" y2="526" gradientUnits="userSpaceOnUse">
<stop offset="0.456731" stop-color="white"/>
<stop offset="0.456831" stop-color="#FBCE3B"/>
</linearGradient>
<clipPath id="clip0_1_387">
<rect width="336" height="526" fill="white"/>
</clipPath>
</defs>
</svg>
